<?xml version="1.0" encoding="UTF-8"?>
<svg version="1.1" xmlns="http://www.w3.org/2000/svg" width="151" height="209">
<path d="M0 0 C5.87326671 1.37459434 12.63360002 3.63360002 17 8 C16.91259749 9.80845692 16.81644755 11.61687085 16.67875671 13.42219543 C14.72858135 31.45729887 14.72858135 31.45729887 20.13916016 47.92724609 C25.48674517 52.31488384 31.5495686 54.69732709 38.05102539 56.89160156 C42.74172543 58.65464306 46.79155882 61.3187623 51 64 C56.27851118 67.05946827 59.84040317 68.51329974 66 68 C66 67.34 66 66.68 66 66 C67.62228516 65.21109375 67.62228516 65.21109375 69.27734375 64.40625 C74.81716078 61.63573177 80.18126039 58.56407575 85.5625 55.5 C86.56474609 54.93152344 87.56699219 54.36304688 88.59960938 53.77734375 C91.4012272 52.18748558 94.20138358 50.59513514 97 49 C97.61723938 48.73989639 98.23447876 48.47979279 98.87042236 48.21180725 C101.10942037 47.26253467 101.10942037 47.26253467 104 45 C104.66522555 41.86563266 104.84649386 39.74259679 104.7265625 36.62109375 C104.72699554 35.8126149 104.72742859 35.00413605 104.72787476 34.17115784 C104.72653615 31.59180256 104.67984109 29.01623366 104.625 26.4375 C104.58077867 23.85559926 104.54694701 21.27542211 104.54354858 18.69313049 C104.54060599 17.08802647 104.51376549 15.48275083 104.46060181 13.87852478 C104.45166016 11.67358398 104.45166016 11.67358398 105 8 C107.3659668 6.07128906 107.3659668 6.07128906 110 5 C110.85980469 4.54238281 111.71960938 4.08476563 112.60546875 3.61328125 C113.45753906 3.18402344 114.30960937 2.75476563 115.1875 2.3125 C116.47720703 1.65701172 116.47720703 1.65701172 117.79296875 0.98828125 C120 0 120 0 122 0 C122.61321844 7.71470973 123.03040018 15.42311407 123.31835938 23.15673828 C123.43841496 25.7795656 123.6017701 28.40080663 123.81054688 31.01806641 C125.16053892 48.38928754 125.16053892 48.38928754 122 56 C116.40200864 62.26775104 108.76185232 65.51644242 101.1207428 68.66496277 C94.14735 71.64814325 87.59136786 75.59304183 81.0625 79.4375 C80.07121094 80.01371094 79.07992187 80.58992188 78.05859375 81.18359375 C75.94878643 82.43654446 73.8584455 83.72266087 71.78515625 85.03515625 C70.74230469 85.68355469 69.69945313 86.33195312 68.625 87 C67.68914062 87.598125 66.75328125 88.19625 65.7890625 88.8125 C62.31613814 90.29116808 60.59467934 90.03803575 57 89 C54.7890625 87.90625 54.7890625 87.90625 52.625 86.5 C48.41497262 83.86171617 44.15052993 81.35806613 39.8125 78.9375 C38.44394887 78.17068275 37.07546262 77.40374971 35.70703125 76.63671875 C34.96662598 76.22212402 34.2262207 75.8075293 33.46337891 75.38037109 C28.63857738 72.6767608 23.8184472 69.96491582 19 67.25 C18.03296143 66.70722412 17.06592285 66.16444824 16.06958008 65.60522461 C14.67388794 64.8183728 14.67388794 64.8183728 13.25 64.015625 C12.43015625 63.55446289 11.6103125 63.09330078 10.765625 62.61816406 C9.85296875 62.08416992 8.9403125 61.55017578 8 61 C7.31656021 60.71554016 6.63312042 60.43108032 5.92897034 60.13800049 C3.49781625 58.97786345 1.84773742 57.97129464 0 56 C-1.19736442 51.85392147 -1.0946601 47.80719039 -1.03515625 43.515625 C-1.04840439 42.30428894 -1.06165253 41.09295288 -1.07530212 39.84490967 C-1.10809608 35.9791179 -1.08531926 32.11582249 -1.0625 28.25 C-1.0791671 25.63148568 -1.09930818 23.01299101 -1.12304688 20.39453125 C-1.15212789 15.62385915 -1.17385713 10.85373025 -1.14868164 6.08300781 C-1.14453751 5.12324036 -1.14039337 4.1634729 -1.13612366 3.17462158 C-1 1 -1 1 0 0 Z " fill="#CB154C" transform="translate(7,97)"/>
<path d="M0 0 C7.65374424 -0.07586651 15.30739207 -0.12852217 22.96142578 -0.16479492 C25.56693139 -0.17991108 28.17241144 -0.20040432 30.77783203 -0.22631836 C34.51601456 -0.26257688 38.25386165 -0.27969798 41.9921875 -0.29296875 C43.16304901 -0.30845261 44.33391052 -0.32393646 45.54025269 -0.33988953 C46.62122223 -0.34011612 47.70219177 -0.34034271 48.81591797 -0.34057617 C50.24821243 -0.35056892 50.24821243 -0.35056892 51.70944214 -0.36076355 C52.46532623 -0.24171158 53.22121033 -0.12265961 54 0 C56.29013653 3.4352048 56.17842973 4.985331 56 9 C56.33 8.34 56.66 7.68 57 7 C64.52969652 6.97473352 72.0593822 6.95716859 79.58911133 6.94506836 C82.15291757 6.9400263 84.71672091 6.93319286 87.28051758 6.92456055 C90.95655021 6.91248936 94.63254498 6.90677058 98.30859375 6.90234375 C99.46274277 6.89718246 100.61689178 6.89202118 101.80601501 6.88670349 C103.3975515 6.88659019 103.3975515 6.88659019 105.02124023 6.88647461 C105.96055893 6.884254 106.89987762 6.88203339 107.86766052 6.87974548 C110 7 110 7 111 8 C111.07244053 10.01964199 111.08377188 12.04167124 111.0625 14.0625 C111.05347656 15.16722656 111.04445312 16.27195312 111.03515625 17.41015625 C111.01775391 18.69212891 111.01775391 18.69212891 111 20 C107.8844171 20.91463407 105.10604372 21.12154961 101.86425781 21.11352539 C100.84350159 21.11344986 99.82274536 21.11337433 98.77105713 21.11329651 C97.67613953 21.10813522 96.58122192 21.10297394 95.453125 21.09765625 C94.3267865 21.0962413 93.200448 21.09482635 92.03997803 21.09336853 C88.44329165 21.08777199 84.84666756 21.0752201 81.25 21.0625 C78.81119882 21.05748455 76.37239666 21.05292172 73.93359375 21.04882812 C67.95570792 21.0378037 61.97785841 21.02106898 56 21 C55.67 23.97 55.34 26.94 55 30 C53.35 30.33 51.7 30.66 50 31 C50.061875 31.969375 50.12375 32.93875 50.1875 33.9375 C50 38 50 38 47 47 C33.8 47 20.6 47 7 47 C5 36 5 36 5 31 C3.02 30.67 1.04 30.34 -1 30 C-1 26.7 -1 23.4 -1 20 C-2.60875 20.12375 -4.2175 20.2475 -5.875 20.375 C-7.23238281 20.47941406 -7.23238281 20.47941406 -8.6171875 20.5859375 C-11.17941903 20.79568132 -11.17941903 20.79568132 -13 23 C-16.625 23.125 -16.625 23.125 -20 23 C-20.02684312 20.18743719 -20.04676188 17.37512759 -20.0625 14.5625 C-20.07087891 13.76005859 -20.07925781 12.95761719 -20.08789062 12.13085938 C-20.0965143 10.08704779 -20.0522815 8.04316098 -20 6 C-19 5 -19 5 -16.0625 4.8125 C-13 5 -13 5 -11 7 C-8.78927023 7.24253813 -8.78927023 7.24253813 -6.375 7.125 C-5.55773438 7.10695313 -4.74046875 7.08890625 -3.8984375 7.0703125 C-3.27195312 7.04710937 -2.64546875 7.02390625 -2 7 C-1.34 4.69 -0.68 2.38 0 0 Z M55 13 C55.33 14.65 55.66 16.3 56 18 C56.33 18 56.66 18 57 18 C57 16.35 57 14.7 57 13 C56.34 13 55.68 13 55 13 Z M40 30 C40 30.33 40 30.66 40 31 C42.97 31 45.94 31 49 31 C49 30.67 49 30.34 49 30 C46.03 30 43.06 30 40 30 Z " fill="#9C8529" transform="translate(39,9)"/>
<path d="M0 0 C7.26 0 14.52 0 22 0 C22 9 22 9 19 12.0625 C18.01 12.701875 17.02 13.34125 16 14 C16.495 16.475 16.495 16.475 17 19 C20.06920058 17.88392706 22.70329781 16.5684654 25.4375 14.8125 C29.65078629 12.6688982 30.52514406 12.85006609 35 14 C38.16787005 15.19932611 41.23685288 16.58277262 44.3125 18 C45.18100586 18.39501709 46.04951172 18.79003418 46.94433594 19.19702148 C55.47735093 23.1275163 63.76340314 27.4869424 72 32 C70.61450642 36.15648074 67.82716648 36.95625554 64.125 38.8125 C62.74061123 39.52681261 61.35649803 40.24165954 59.97265625 40.95703125 C59.29090332 41.30588379 58.60915039 41.65473633 57.90673828 42.01416016 C55.43109175 43.29414232 52.99688137 44.64343634 50.5625 46 C45.51271762 48.76802886 40.37523407 51.33891233 35.20800781 53.87866211 C31.69508723 55.61467904 28.23272547 57.40419128 24.81640625 59.32421875 C24.14383789 59.69885254 23.47126953 60.07348633 22.77832031 60.45947266 C21.49865709 61.17749531 20.22540775 61.90711108 18.95996094 62.64990234 C16.34702192 64.10921787 14.48146815 65.01922914 11.45703125 64.8984375 C8.47169793 63.80682118 5.70607855 62.51214866 2.875 61.0625 C1.97309937 60.60278809 1.97309937 60.60278809 1.05297852 60.13378906 C-6.4600533 56.28660027 -13.91720871 52.32982274 -21.37939453 48.38525391 C-26.08401827 45.89838647 -30.79067389 43.41545129 -35.5 40.9375 C-36.40242432 40.46022461 -37.30484863 39.98294922 -38.23461914 39.49121094 C-39.07500732 39.04938477 -39.91539551 38.60755859 -40.78125 38.15234375 C-41.52439453 37.76038818 -42.26753906 37.36843262 -43.03320312 36.96459961 C-45.12683501 35.88337792 -45.12683501 35.88337792 -48 35 C-47.7890625 33.16015625 -47.7890625 33.16015625 -47 31 C-44.9609375 29.62109375 -44.9609375 29.62109375 -42.375 28.4375 C-41.53710938 28.04433594 -40.69921875 27.65117188 -39.8359375 27.24609375 C-37.84067285 26.36938656 -35.83573432 25.51453129 -33.82421875 24.67578125 C-30.80098504 23.38922003 -27.86990055 21.95823577 -24.93359375 20.484375 C-24.03576172 20.03835937 -23.13792969 19.59234375 -22.21289062 19.1328125 C-20.35323175 18.20625481 -18.49905709 17.26861233 -16.65039062 16.3203125 C-9.90900447 13.00535338 -9.90900447 13.00535338 -5.68359375 12.98046875 C-2.609842 14.14822597 -0.26318073 15.60169 2.375 17.5625 C3.68597656 18.52349609 3.68597656 18.52349609 5.0234375 19.50390625 C5.67570312 19.99761719 6.32796875 20.49132812 7 21 C4.31799946 24.18914246 0.86270802 25.77300081 -2.8125 27.5625 C-3.41642578 27.86607422 -4.02035156 28.16964844 -4.64257812 28.48242188 C-7.52264927 29.90540644 -10.32599311 31.10490436 -13.38671875 32.08984375 C-16.14568549 32.71005928 -16.14568549 32.71005928 -17 35 C-16.28714844 35.27199219 -15.57429688 35.54398438 -14.83984375 35.82421875 C-12 37 -12 37 -9.31640625 38.39453125 C-6.57044767 39.8084078 -3.94160852 41.05292426 -1 42 C2.14934271 40.96728961 2.14934271 40.96728961 5 39 C8.31937833 38.43254198 11.63976605 38.19258258 15 38 C15 37.01 15 36.02 15 35 C14.236875 34.896875 13.47375 34.79375 12.6875 34.6875 C9.76410969 33.93965597 8.77285665 33.39335648 7 31 C5.836881 27.65077781 6.04694501 26.84090857 7.125 23.1875 C8.06026866 19.77090634 7.96994331 18.89391756 6.9375 15.25 C5.2287891 11.89449117 5.2287891 11.89449117 2.3125 10.0625 C1.549375 9.381875 0.78625 8.70125 0 8 C0 5.36 0 2.72 0 0 Z M16 23 C15.34 24.65 14.68 26.3 14 28 C17.465 29.98 17.465 29.98 21 32 C21.48120301 39.21804511 21.48120301 39.21804511 19.5 42.4375 C16.01854101 44.61341187 13.07278365 44.59939833 9 45 C8.67 45.66 8.34 46.32 8 47 C10.05726958 48.39118485 10.05726958 48.39118485 13 49 C15.89947297 48.22598159 18.46635452 46.87319527 21.125 45.5 C21.87257568 45.13068359 22.62015137 44.76136719 23.39038086 44.38085938 C29.34442319 41.41440524 35.22120821 38.29503463 41 35 C37.4118672 30.6590437 32.98731326 28.91592467 27.9375 26.75 C27.12216797 26.38648438 26.30683594 26.02296875 25.46679688 25.6484375 C20.90773723 23.58765763 20.90773723 23.58765763 16 23 Z " fill="#ED5C72" transform="translate(56,57)"/>
<path d="M0 0 C3.90359794 0.8708552 7.09018638 2.57098802 10.5625 4.5 C16.65569399 7.79334996 22.78921829 10.99622597 29 14.0625 C29.78834229 14.46855469 30.57668457 14.87460938 31.38891602 15.29296875 C36.35600768 17.70713884 39.50211437 18.63417816 45 17 C48.28652211 15.54336671 51.41999673 13.867818 54.5625 12.125 C56.20941526 11.23136498 57.85654579 10.33812656 59.50390625 9.4453125 C60.27839111 9.0212915 61.05287598 8.59727051 61.85083008 8.16040039 C64.53624491 6.71046552 67.26893709 5.36149142 70 4 C71.23596641 3.2824195 72.46653786 2.55532312 73.6875 1.8125 C77 0 77 0 80 0 C81.23273216 6.46173702 81.02420692 12.63893863 80.8125 19.1875 C80.79380859 20.37537109 80.77511719 21.56324219 80.75585938 22.78710938 C80.71912109 23.92341797 80.68238281 25.05972656 80.64453125 26.23046875 C80.61721924 27.26582764 80.58990723 28.30118652 80.56176758 29.36791992 C80 32 80 32 78.1015625 33.77783203 C77.40804687 34.18114746 76.71453125 34.58446289 76 35 C75.25105469 35.43699219 74.50210938 35.87398437 73.73046875 36.32421875 C72.89128906 36.77410156 72.05210938 37.22398437 71.1875 37.6875 C70.22457031 38.20570313 69.26164062 38.72390625 68.26953125 39.2578125 C67.19058594 39.83273438 66.11164063 40.40765625 65 41 C64.39591309 41.32194336 63.79182617 41.64388672 63.16943359 41.97558594 C62.22511475 42.47880371 62.22511475 42.47880371 61.26171875 42.9921875 C60.30289795 43.50338135 60.30289795 43.50338135 59.32470703 44.02490234 C58.02855028 44.71469275 56.73135264 45.40253095 55.43310547 46.08837891 C51.15065112 48.35685678 46.95699452 50.73858129 42.83203125 53.28515625 C40.42594955 54.22398984 39.44741759 53.78538166 37 53 C35.37218007 52.20709249 33.76817787 51.3644052 32.18359375 50.48828125 C31.25353516 49.97716797 30.32347656 49.46605469 29.36523438 48.93945312 C28.39908203 48.40255859 27.43292969 47.86566406 26.4375 47.3125 C25.49841797 46.79494141 24.55933594 46.27738281 23.59179688 45.74414062 C21.68990535 44.69594646 19.78935557 43.64531418 17.89013672 42.59228516 C14.07553995 40.49068015 10.23685435 38.43442997 6.39477539 36.38354492 C5.60449951 35.9269751 4.81422363 35.47040527 4 35 C3.24420654 34.5978125 2.48841309 34.195625 1.7097168 33.78125 C-0.4523748 31.52869819 -0.45462573 29.83303724 -0.45318604 26.78120422 C-0.43254089 26.09672714 -0.41189575 25.41225006 -0.390625 24.70703125 C-0.38496521 24.00100266 -0.37930542 23.29497406 -0.37347412 22.56755066 C-0.35110411 20.31517374 -0.30091199 18.06439497 -0.25 15.8125 C-0.22993556 14.28452821 -0.21168468 12.75653144 -0.1953125 11.22851562 C-0.15123802 7.48506244 -0.08221074 3.74280205 0 0 Z " fill="#038AB8" transform="translate(28,108)"/>
<path d="M0 0 C0.61321844 7.71470973 1.03040018 15.42311407 1.31835938 23.15673828 C1.43841496 25.7795656 1.6017701 28.40080663 1.81054688 31.01806641 C3.16053892 48.38928754 3.16053892 48.38928754 0 56 C-5.59833393 62.2681346 -13.23879379 65.51613349 -20.87994385 68.66564941 C-27.99453974 71.70833991 -34.64978092 75.73087218 -41.25 79.75 C-45.52269756 82.26823496 -49.19076908 83.89788458 -54 85 C-54.7425 85.37125 -55.485 85.7425 -56.25 86.125 C-58 87 -58 87 -61 87 C-61.0809313 84.39521117 -61.14045434 81.79293347 -61.1875 79.1875 C-61.21263672 78.44951172 -61.23777344 77.71152344 -61.26367188 76.95117188 C-61.33780469 71.49005469 -61.33780469 71.49005469 -59.61328125 68.98828125 C-58 68 -58 68 -56 68 C-56 67.34 -56 66.68 -56 66 C-54.37771484 65.21109375 -54.37771484 65.21109375 -52.72265625 64.40625 C-47.18283922 61.63573177 -41.81873961 58.56407575 -36.4375 55.5 C-35.43525391 54.93152344 -34.43300781 54.36304688 -33.40039062 53.77734375 C-30.5987728 52.18748558 -27.79861642 50.59513514 -25 49 C-24.07414093 48.60984459 -24.07414093 48.60984459 -23.12957764 48.21180725 C-20.89057963 47.26253467 -20.89057963 47.26253467 -18 45 C-17.33477445 41.86563266 -17.15350614 39.74259679 -17.2734375 36.62109375 C-17.27300446 35.8126149 -17.27257141 35.00413605 -17.27212524 34.17115784 C-17.27346385 31.59180256 -17.32015891 29.01623366 -17.375 26.4375 C-17.41922133 23.85559926 -17.45305299 21.27542211 -17.45645142 18.69313049 C-17.45939401 17.08802647 -17.48623451 15.48275083 -17.53939819 13.87852478 C-17.54833984 11.67358398 -17.54833984 11.67358398 -17 8 C-14.6340332 6.07128906 -14.6340332 6.07128906 -12 5 C-10.71029297 4.31357422 -10.71029297 4.31357422 -9.39453125 3.61328125 C-8.54246094 3.18402344 -7.69039062 2.75476563 -6.8125 2.3125 C-5.95269531 1.87550781 -5.09289062 1.43851562 -4.20703125 0.98828125 C-2 0 -2 0 0 0 Z " fill="#EE2971" transform="translate(129,97)"/>
<path d="M0 0 C12.54 0 25.08 0 38 0 C38 15 38 15 35 20 C34.01 20 33.02 20 32 20 C32 20.66 32 21.32 32 22 C32.639375 21.814375 33.27875 21.62875 33.9375 21.4375 C34.618125 21.293125 35.29875 21.14875 36 21 C37 22 37 22 37.0625 25.0625 C37.041875 26.031875 37.02125 27.00125 37 28 C28.74973532 28.92808938 20.6096172 29.1230629 12.3125 29.0625 C11.12205078 29.05798828 9.93160156 29.05347656 8.70507812 29.04882812 C5.80333064 29.03717452 2.90169374 29.02081559 0 29 C0 28.67 0 28.34 0 28 C-6.93 27.505 -6.93 27.505 -14 27 C-14 18.75 -14 10.5 -14 2 C-9.38 1.67 -4.76 1.34 0 1 C0 0.67 0 0.34 0 0 Z M32 23 C32.66 23.66 33.32 24.32 34 25 C34 24.34 34 23.68 34 23 C33.34 23 32.68 23 32 23 Z " fill="#FBCF0B" transform="translate(55,10)"/>
<path d="M0 0 C3.90314679 0.87075456 7.09130018 2.56935523 10.5625 4.5 C19.52225177 9.39146059 28.74415708 13.70291229 38 18 C38 18.66 38 19.32 38 20 C38.66 20 39.32 20 40 20 C40.33 31.22 40.66 42.44 41 54 C37.50966403 53.12741601 35.27588494 52.19802348 32.18359375 50.48828125 C31.25353516 49.97716797 30.32347656 49.46605469 29.36523438 48.93945312 C28.39908203 48.40255859 27.43292969 47.86566406 26.4375 47.3125 C25.49841797 46.79494141 24.55933594 46.27738281 23.59179688 45.74414062 C21.68990535 44.69594646 19.78935557 43.64531418 17.89013672 42.59228516 C14.07553995 40.49068015 10.23685435 38.43442997 6.39477539 36.38354492 C5.60449951 35.9269751 4.81422363 35.47040527 4 35 C3.24420654 34.5978125 2.48841309 34.195625 1.7097168 33.78125 C-0.4523748 31.52869819 -0.45462573 29.83303724 -0.45318604 26.78120422 C-0.43254089 26.09672714 -0.41189575 25.41225006 -0.390625 24.70703125 C-0.38496521 24.00100266 -0.37930542 23.29497406 -0.37347412 22.56755066 C-0.35110411 20.31517374 -0.30091199 18.06439497 -0.25 15.8125 C-0.22993556 14.28452821 -0.21168468 12.75653144 -0.1953125 11.22851562 C-0.15123802 7.48506244 -0.08221074 3.74280205 0 0 Z " fill="#F4A508" transform="translate(28,108)"/>
<path d="M0 0 C0.86850586 0.39501709 1.73701172 0.79003418 2.63183594 1.19702148 C11.16485093 5.1275163 19.45090314 9.4869424 27.6875 14 C26.30200642 18.15648074 23.51466648 18.95625554 19.8125 20.8125 C18.42811123 21.52681261 17.04399803 22.24165954 15.66015625 22.95703125 C14.63752686 23.48031006 14.63752686 23.48031006 13.59423828 24.01416016 C11.11859175 25.29414232 8.68438137 26.64343634 6.25 28 C0.45952605 31.17097383 -5.44141852 34.1076155 -11.359375 37.03125 C-13.86782401 38.27209287 -16.34884051 39.54350303 -18.828125 40.84375 C-19.87484375 41.3903125 -20.9215625 41.936875 -22 42.5 C-23.36705078 43.22703125 -23.36705078 43.22703125 -24.76171875 43.96875 C-27.48374143 45.06923084 -29.40604507 45.20947423 -32.3125 45 C-32.3935206 42.89646505 -32.45169907 40.79204048 -32.5 38.6875 C-32.53480469 37.51574219 -32.56960937 36.34398437 -32.60546875 35.13671875 C-32.27438619 31.59192817 -31.92174869 31.18518485 -29.3125 29 C-26.78653664 27.61781556 -24.27493371 26.31701331 -21.6875 25.0625 C-20.97271484 24.71058594 -20.25792969 24.35867187 -19.52148438 23.99609375 C-14.50405993 21.53969375 -9.44776461 19.20082769 -4.3125 17 C-6.5027023 14.5644295 -8.45566624 13.31123307 -11.47265625 12.0625 C-12.26607422 11.72476563 -13.05949219 11.38703125 -13.87695312 11.0390625 C-15.54564838 10.34496877 -17.21492265 9.65226549 -18.88476562 8.9609375 C-19.67689453 8.62320313 -20.46902344 8.28546875 -21.28515625 7.9375 C-22.00968994 7.63714844 -22.73422363 7.33679688 -23.48071289 7.02734375 C-25.3125 6 -25.3125 6 -27.3125 3 C-26.3225 3 -25.3325 3 -24.3125 3 C-24.0340625 2.13375 -24.0340625 2.13375 -23.75 1.25 C-17.48726142 -8.55254734 -8.4036304 -3.87230869 0 0 Z " fill="#F8C609" transform="translate(100.3125,75)"/>
<path d="M0 0 C-0.33 0.99 -0.66 1.98 -1 3 C-3.4140625 3.99560547 -3.4140625 3.99560547 -6.625 4.8671875 C-7.79877197 5.19332031 -8.97254395 5.51945313 -10.18188477 5.85546875 C-11.44186279 6.19191406 -12.70184082 6.52835938 -14 6.875 C-15.28799575 7.22670679 -16.57567498 7.57957475 -17.86303711 7.93359375 C-20.41165431 8.63403136 -22.96104347 9.33166673 -25.51123047 10.02636719 C-28.44532416 10.84520313 -31.35142604 11.70963916 -34.25390625 12.6328125 C-34.99833984 12.86758301 -35.74277344 13.10235352 -36.50976562 13.34423828 C-38.40639161 13.95012998 -40.29909262 14.56827143 -42.19140625 15.1875 C-51.6894559 17.21375059 -59.685638 15.66077281 -68.8125 12.75 C-70.92312138 12.10528635 -73.0337982 11.46075418 -75.14453125 10.81640625 C-76.15080566 10.5033252 -77.15708008 10.19024414 -78.19384766 9.86767578 C-81.78295401 8.75790686 -85.3864733 7.71491354 -89 6.6875 C-90.05445313 6.38714844 -91.10890625 6.08679688 -92.1953125 5.77734375 C-95.78221656 4.78320182 -99.38078328 3.86861201 -103 3 C-103 1.68 -103 0.36 -103 -1 C-79.6688229 -7.12682728 -79.6688229 -7.12682728 -72.49609375 -3.859375 C-69.92522719 -2.33053417 -67.46907263 -0.68776854 -65 1 C-63.12282676 2.17615419 -61.22660703 3.32246084 -59.3125 4.4375 C-58.46300781 4.95183594 -57.61351562 5.46617187 -56.73828125 5.99609375 C-52.9447786 7.38686434 -50.91185996 7.04832952 -47 6 C-43.77698576 4.37433956 -40.77344414 2.46771692 -37.75 0.5 C-36.16303995 -0.51289894 -34.57456097 -1.52342311 -32.984375 -2.53125 C-32.29053711 -2.98048828 -31.59669922 -3.42972656 -30.88183594 -3.89257812 C-22.33552896 -8.9219046 -8.85390128 -2.69808234 0 0 Z " fill="#022551" transform="translate(120,182)"/>
<path d="M0 0 C2 2 2 2 2.125 5.125 C2.08375 6.07375 2.0425 7.0225 2 8 C2.33 7.34 2.66 6.68 3 6 C10.52969652 5.97473352 18.0593822 5.95716859 25.58911133 5.94506836 C28.15291757 5.9400263 30.71672091 5.93319286 33.28051758 5.92456055 C36.95655021 5.91248936 40.63254498 5.90677058 44.30859375 5.90234375 C45.46274277 5.89718246 46.61689178 5.89202118 47.80601501 5.88670349 C49.3975515 5.88659019 49.3975515 5.88659019 51.02124023 5.88647461 C51.96055893 5.884254 52.89987762 5.88203339 53.86766052 5.87974548 C56 6 56 6 57 7 C57.07244053 9.01964199 57.08377188 11.04167124 57.0625 13.0625 C57.05347656 14.16722656 57.04445313 15.27195312 57.03515625 16.41015625 C57.02355469 17.26480469 57.01195312 18.11945312 57 19 C53.8844171 19.91463407 51.10604372 20.12154961 47.86425781 20.11352539 C46.84350159 20.11344986 45.82274536 20.11337433 44.77105713 20.11329651 C43.67613953 20.10813522 42.58122192 20.10297394 41.453125 20.09765625 C40.3267865 20.0962413 39.200448 20.09482635 38.03997803 20.09336853 C34.44329165 20.08777199 30.84666756 20.0752201 27.25 20.0625 C24.81119882 20.05748455 22.37239666 20.05292172 19.93359375 20.04882812 C13.95570792 20.0378037 7.97785841 20.02106898 2 20 C1.67 22.97 1.34 25.94 1 29 C-3.29 29 -7.58 29 -12 29 C-12 28.67 -12 28.34 -12 28 C-4.57142857 26.71428571 -4.57142857 26.71428571 -1 28 C-1.33 26.02 -1.66 24.04 -2 22 C-2.66 22.33 -3.32 22.66 -4 23 C-4.66 22.67 -5.32 22.34 -6 22 C-6 21.34 -6 20.68 -6 20 C-5.01 19.67 -4.02 19.34 -3 19 C-0.44781974 15.49292236 -0.56467454 11.43074302 -0.375 7.25 C-0.31699219 6.20392578 -0.31699219 6.20392578 -0.2578125 5.13671875 C-0.16401376 3.42489182 -0.08093826 1.71248318 0 0 Z M1 12 C1.33 13.65 1.66 15.3 2 17 C2.33 17 2.66 17 3 17 C3 15.35 3 13.7 3 12 C2.34 12 1.68 12 1 12 Z M-6 23 C-5.34 23 -4.68 23 -4 23 C-4.33 23.66 -4.66 24.32 -5 25 C-5.33 24.34 -5.66 23.68 -6 23 Z " fill="#FCD706" transform="translate(93,10)"/>
<path d="M0 0 C7.26 0 14.52 0 22 0 C22 9 22 9 19 12.0625 C18.01 12.701875 17.02 13.34125 16 14 C16.33 15.65 16.66 17.3 17 19 C17.99 19 18.98 19 20 19 C20 19.66 20 20.32 20 21 C19.360625 21.2475 18.72125 21.495 18.0625 21.75 C15.80696091 22.80283433 15.80696091 22.80283433 15.37109375 25.078125 C15.24863281 25.71234375 15.12617187 26.3465625 15 27 C15.5053125 27.268125 16.010625 27.53625 16.53125 27.8125 C21.63287496 30.88967061 21.63287496 30.88967061 22.640625 33.9375 C22.84681827 37.82571586 22.22204348 39.67387364 20 42.9375 C16.10202976 45.61735454 13.68965168 45.69744183 9 46 C7.515 46.495 7.515 46.495 6 47 C3.63477442 46.07796291 1.29598193 45.08301035 -1 44 C0.08203125 42.078125 0.08203125 42.078125 2 40 C5.13671875 39.171875 5.13671875 39.171875 8.6875 38.75 C9.86699219 38.60046875 11.04648438 38.4509375 12.26171875 38.296875 C13.16535156 38.19890625 14.06898437 38.1009375 15 38 C15 37.01 15 36.02 15 35 C14.236875 34.896875 13.47375 34.79375 12.6875 34.6875 C9.76410969 33.93965597 8.77285665 33.39335648 7 31 C5.836881 27.65077781 6.04694501 26.84090857 7.125 23.1875 C8.06026866 19.77090634 7.96994331 18.89391756 6.9375 15.25 C5.2287891 11.89449117 5.2287891 11.89449117 2.3125 10.0625 C1.549375 9.381875 0.78625 8.70125 0 8 C0 5.36 0 2.72 0 0 Z " fill="#0FABDC" transform="translate(56,57)"/>
<path d="M0 0 C4.94602413 0.38792346 8.76732423 1.37977214 13 4 C13.33 4.99 13.66 5.98 14 7 C15.32467746 7.6837045 16.65863633 8.34964186 18 9 C18.99 10.485 18.99 10.485 20 12 C20.99 12.165 21.98 12.33 23 12.5 C23.99 12.665 24.98 12.83 26 13 C26.99 14.485 26.99 14.485 28 16 C30.31 16.66 32.62 17.32 35 18 C35 22.95 35 27.9 35 33 C28.25 30.75 28.25 30.75 25 29 C25 28.34 25 27.68 25 27 C24.28972656 26.81824219 23.57945313 26.63648438 22.84765625 26.44921875 C21.92855469 26.19785156 21.00945313 25.94648438 20.0625 25.6875 C19.14597656 25.44386719 18.22945312 25.20023438 17.28515625 24.94921875 C16.53105469 24.63597656 15.77695312 24.32273438 15 24 C14.67 23.01 14.34 22.02 14 21 C13.28457031 20.88785156 12.56914063 20.77570313 11.83203125 20.66015625 C8.80884002 19.95543995 6.43677312 18.86712202 3.6875 17.4375 C2.80449219 16.98246094 1.92148437 16.52742188 1.01171875 16.05859375 C0.34785156 15.70925781 -0.31601562 15.35992187 -1 15 C-1.02685412 12.68756208 -1.04632841 10.3750373 -1.0625 8.0625 C-1.07410156 6.77472656 -1.08570312 5.48695312 -1.09765625 4.16015625 C-1 1 -1 1 0 0 Z " fill="#FCC70B" transform="translate(31,111)"/>
<path d="M0 0 C0.66818756 0.00045822 1.33637512 0.00091644 2.02481079 0.00138855 C3.43517843 0.00440211 4.845543 0.01226159 6.25585938 0.0246582 C8.39986146 0.04284827 10.54342896 0.04516809 12.6875 0.04492188 C18.57084816 0.06596782 24.23857641 0.11627306 30.0390625 1.23046875 C29.8946875 1.91109375 29.7503125 2.59171875 29.6015625 3.29296875 C29.17765682 5.50669843 28.86275192 7.7417023 28.6015625 9.98046875 C28.323125 11.58921875 28.323125 11.58921875 28.0390625 13.23046875 C24.86615537 14.81692232 21.45080866 14.35125088 17.96875 14.328125 C16.77440842 14.32600258 16.77440842 14.32600258 15.55593872 14.32383728 C13.0086087 14.3182322 10.46136603 14.30567889 7.9140625 14.29296875 C6.18880335 14.2879544 4.46354283 14.28339138 2.73828125 14.27929688 C-1.49482541 14.26826112 -5.72786664 14.25099311 -9.9609375 14.23046875 C-10.2909375 10.27046875 -10.6209375 6.31046875 -10.9609375 2.23046875 C-6.68745664 0.09372832 -4.68866899 -0.01554154 0 0 Z " fill="#FBCC08" transform="translate(56.9609375,40.76953125)"/>
<path d="M0 0 C-0.33 0.99 -0.66 1.98 -1 3 C-3.50927734 4.02734375 -3.50927734 4.02734375 -6.8359375 4.9375 C-8.04636719 5.27523437 -9.25679687 5.61296875 -10.50390625 5.9609375 C-11.79419295 6.30758169 -13.08455802 6.6539343 -14.375 7 C-15.61378906 7.34289062 -16.85257813 7.68578125 -18.12890625 8.0390625 C-20.58895123 8.71823193 -23.05111438 9.38977775 -25.51538086 10.0534668 C-27.70857984 10.64920928 -29.89767918 11.26047424 -32.08032227 11.89379883 C-37.53891488 13.46682175 -42.50969567 14.42705026 -48.1875 14.6875 C-50.12689453 14.78611328 -50.12689453 14.78611328 -52.10546875 14.88671875 C-53.53826172 14.94279297 -53.53826172 14.94279297 -55 15 C-55.33 14.34 -55.66 13.68 -56 13 C-36.52145428 -3.3368448 -24.05294889 -7.32974478 0 0 Z " fill="#04648E" transform="translate(120,182)"/>
<path d="M0 0 C1.32229189 2.64458379 1.09677194 4.67761301 1.0625 7.625 C1.05347656 8.62789062 1.04445312 9.63078125 1.03515625 10.6640625 C1.02355469 11.43492188 1.01195312 12.20578125 1 13 C-17.2504188 22.65355537 -17.2504188 22.65355537 -24.0625 26.125 C-25.16271484 26.68574219 -25.16271484 26.68574219 -26.28515625 27.2578125 C-28 28 -28 28 -30 28 C-30 28.66 -30 29.32 -30 30 C-32.31 30.66 -34.62 31.32 -37 32 C-37.13501894 29.56065775 -37.23403897 27.12875896 -37.3125 24.6875 C-37.35439453 23.99720703 -37.39628906 23.30691406 -37.43945312 22.59570312 C-37.48828125 20.57421875 -37.48828125 20.57421875 -37 17 C-34.59375 15.125 -34.59375 15.125 -32 14 C-31.401875 13.443125 -30.80375 12.88625 -30.1875 12.3125 C-27.69281932 10.81569159 -26.77045426 10.91775051 -23.9375 11.0625 C-22.638125 11.041875 -21.33875 11.02125 -20 11 C-18.98594743 9.67732273 -17.98731742 8.34275169 -17 7 C-14.66158543 6.33737796 -12.3657502 5.93616791 -9.9609375 5.58984375 C-9.31382813 5.39519531 -8.66671875 5.20054688 -8 5 C-7.67 4.01 -7.34 3.02 -7 2 C-4.56723614 0.81480735 -2.71982714 0 0 0 Z " fill="#06BBDB" transform="translate(106,112)"/>
<path d="M0 0 C12.54 0 25.08 0 38 0 C38 15 38 15 35 20 C34.01 20 33.02 20 32 20 C32 20.66 32 21.32 32 22 C32.639375 21.814375 33.27875 21.62875 33.9375 21.4375 C34.618125 21.293125 35.29875 21.14875 36 21 C37 22 37 22 37.0625 25.0625 C37.041875 26.031875 37.02125 27.00125 37 28 C34.20880221 28.22114415 31.4178788 28.42743301 28.625 28.625 C27.8309375 28.68945312 27.036875 28.75390625 26.21875 28.8203125 C24.14971776 28.96058587 22.07374464 28.98758237 20 29 C19.34 28.34 18.68 27.68 18 27 C18.33 26.01 18.66 25.02 19 24 C19.14835948 22.22833025 19.24770018 20.45232388 19.31640625 18.67578125 C19.35830078 17.64775391 19.40019531 16.61972656 19.44335938 15.56054688 C19.48267578 14.48869141 19.52199219 13.41683594 19.5625 12.3125 C19.60568359 11.22904297 19.64886719 10.14558594 19.69335938 9.02929688 C19.79946742 6.35301615 19.90024055 3.67652489 20 1 C13.4 1 6.8 1 0 1 C0 0.67 0 0.34 0 0 Z M32 23 C32.66 23.66 33.32 24.32 34 25 C34 24.34 34 23.68 34 23 C33.34 23 32.68 23 32 23 Z " fill="#FAED32" transform="translate(55,10)"/>
<path d="M0 0 C-1.00193437 3.79303725 -1.81024227 6.71536341 -4 10 C-2.02 9.67 -0.04 9.34 2 9 C2 8.34 2 7.68 2 7 C2.99 7 3.98 7 5 7 C5.33 6.01 5.66 5.02 6 4 C10.455 3.505 10.455 3.505 15 3 C12.59759365 5.40240635 11.26826198 6.56138771 8.41015625 8.05078125 C7.71365967 8.41679443 7.01716309 8.78280762 6.29956055 9.15991211 C5.56133057 9.54026611 4.82310059 9.92062012 4.0625 10.3125 C3.30557861 10.70767822 2.54865723 11.10285645 1.76879883 11.51000977 C-4.45104787 14.74659349 -10.71051121 17.90097887 -17 21 C-17.66386719 21.38285156 -18.32773438 21.76570313 -19.01171875 22.16015625 C-21.44477878 23.18787316 -23.38525038 23.14526387 -26 23 C-26.0810206 20.89646505 -26.13919907 18.79204048 -26.1875 16.6875 C-26.22230469 15.51574219 -26.25710937 14.34398438 -26.29296875 13.13671875 C-25.96125894 9.58521242 -25.60742371 9.19484011 -23 7 C-20.51249323 5.40221676 -17.88142081 4.09452158 -15.25 2.75 C-14.5590625 2.37359375 -13.868125 1.9971875 -13.15625 1.609375 C-8.25809681 -0.89494392 -5.35874385 -1.31864378 0 0 Z " fill="#F5B807" transform="translate(94,97)"/>
<path d="M0 0 C4.62 0 9.24 0 14 0 C14 8.25 14 16.5 14 25 C9.38 25 4.76 25 0 25 C0 16.75 0 8.5 0 0 Z " fill="#FAA302" transform="translate(41,12)"/>
<path d="M0 0 C0.33 0 0.66 0 1 0 C1 9.57 1 19.14 1 29 C0.67 29 0.34 29 0 29 C0 25.7 0 22.4 0 19 C-1.60875 19.12375 -3.2175 19.2475 -4.875 19.375 C-6.23238281 19.47941406 -6.23238281 19.47941406 -7.6171875 19.5859375 C-10.17941903 19.79568132 -10.17941903 19.79568132 -12 22 C-15.625 22.125 -15.625 22.125 -19 22 C-19.02684312 19.18743719 -19.04676188 16.37512759 -19.0625 13.5625 C-19.07087891 12.76005859 -19.07925781 11.95761719 -19.08789062 11.13085938 C-19.0965143 9.08704779 -19.0522815 7.04316098 -19 5 C-18 4 -18 4 -15.0625 3.8125 C-12 4 -12 4 -10 6 C-7.78927023 6.24253813 -7.78927023 6.24253813 -5.375 6.125 C-4.55773438 6.10695313 -3.74046875 6.08890625 -2.8984375 6.0703125 C-2.27195312 6.04710937 -1.64546875 6.02390625 -1 6 C-0.67 4.02 -0.34 2.04 0 0 Z " fill="#9B6714" transform="translate(38,10)"/>
<path d="M0 0 C7.52969652 -0.02526648 15.0593822 -0.04283141 22.58911133 -0.05493164 C25.15291757 -0.0599737 27.71672091 -0.06680714 30.28051758 -0.07543945 C33.95655021 -0.08751064 37.63254498 -0.09322942 41.30859375 -0.09765625 C42.46274277 -0.10281754 43.61689178 -0.10797882 44.80601501 -0.11329651 C46.3975515 -0.11340981 46.3975515 -0.11340981 48.02124023 -0.11352539 C48.96055893 -0.115746 49.89987762 -0.11796661 50.86766052 -0.12025452 C53 0 53 0 54 1 C54.07244053 3.01964199 54.08377188 5.04167124 54.0625 7.0625 C54.05347656 8.16722656 54.04445312 9.27195312 54.03515625 10.41015625 C54.02355469 11.26480469 54.01195312 12.11945312 54 13 C51.09965854 13.82977945 48.52315592 14.12629132 45.51025391 14.12939453 C44.18835556 14.13412277 44.18835556 14.13412277 42.8397522 14.13894653 C41.8948996 14.1369223 40.950047 14.13489807 39.9765625 14.1328125 C38.99763031 14.13376923 38.01869812 14.13472595 37.01010132 14.13571167 C34.94065283 14.13639168 32.87120219 14.13454984 30.80175781 14.13037109 C27.64383106 14.12503184 24.48604727 14.13031623 21.328125 14.13671875 C19.31510385 14.13605771 17.3020828 14.13477602 15.2890625 14.1328125 C14.34825836 14.13483673 13.40745422 14.13686096 12.43814087 14.13894653 C7.84422027 14.12263145 3.51973114 13.94289813 -1 13 C-0.67 10.69 -0.34 8.38 0 6 C1.65 6 3.3 6 5 6 C5.33 7.98 5.66 9.96 6 12 C21.18 12 36.36 12 52 12 C52 10.02 52 8.04 52 6 C50.77023438 6.01740234 50.77023438 6.01740234 49.515625 6.03515625 C48.43796875 6.04417969 47.3603125 6.05320312 46.25 6.0625 C44.64898437 6.07990234 44.64898437 6.07990234 43.015625 6.09765625 C40.46631499 6.01510087 38.42066409 5.74617558 36 5 C36 4.34 36 3.68 36 3 C24.12 2.34 12.24 1.68 0 1 C0 0.67 0 0.34 0 0 Z " fill="#BAA619" transform="translate(96,16)"/>
<path d="M0 0 C8.7595092 -0.44539877 8.7595092 -0.44539877 13 3 C13 3.66 13 4.32 13 5 C13.99 4.87625 13.99 4.87625 15 4.75 C19.30909073 5.10909089 22.20881858 6.94376601 26 9 C26 12.63 26 16.26 26 20 C24.68 19.67 23.36 19.34 22 19 C21.67 18.34 21.34 17.68 21 17 C20.34 17.33 19.68 17.66 19 18 C11.18139334 16.81983296 4.78109741 12.86605249 -2 9 C-1.01 8.67 -0.02 8.34 1 8 C1.20970559 3.85906302 1.20970559 3.85906302 0 0 Z " fill="#EC5870" transform="translate(40,98)"/>
<path d="M0 0 C7.26 0 14.52 0 22 0 C22 2.97 22 5.94 22 9 C19.0625 11.9375 19.0625 11.9375 16 14 C15.67 14.66 15.34 15.32 15 16 C11.8125 16.3125 11.8125 16.3125 8 16 C5.25 13.6875 5.25 13.6875 3 11 C2.401875 10.566875 1.80375 10.13375 1.1875 9.6875 C0 8 0 8 0 0 Z " fill="#CC1548" transform="translate(56,57)"/>
<path d="M0 0 C0.78375 0.37705078 1.5675 0.75410156 2.375 1.14257812 C4.29495053 2.06743234 6.210439 3.00153978 8.125 3.9375 C7.465 4.5975 6.805 5.2575 6.125 5.9375 C5.62871094 5.66035156 5.13242188 5.38320312 4.62109375 5.09765625 C0.03181832 2.65062324 -3.69059721 1.36953357 -8.875 0.9375 C-10.61147948 2.61238528 -10.61147948 2.61238528 -11.875 4.9375 C-11.16542763 7.67148135 -11.16542763 7.67148135 -9.875 9.9375 C-7.565 10.2675 -5.255 10.5975 -2.875 10.9375 C-2.875 11.5975 -2.875 12.2575 -2.875 12.9375 C-2.215 12.9375 -1.555 12.9375 -0.875 12.9375 C-0.545 14.5875 -0.215 16.2375 0.125 17.9375 C-6.275 21.01442308 -6.275 21.01442308 -9.3125 20.625 C-9.828125 20.398125 -10.34375 20.17125 -10.875 19.9375 C-8.565 18.9475 -6.255 17.9575 -3.875 16.9375 C-6.0652023 14.5019295 -8.01816624 13.24873307 -11.03515625 12 C-12.2252832 11.49339844 -12.2252832 11.49339844 -13.43945312 10.9765625 C-15.10814838 10.28246877 -16.77742265 9.58976549 -18.44726562 8.8984375 C-19.23939453 8.56070313 -20.03152344 8.22296875 -20.84765625 7.875 C-21.57218994 7.57464844 -22.29672363 7.27429688 -23.04321289 6.96484375 C-24.875 5.9375 -24.875 5.9375 -26.875 2.9375 C-25.885 2.9375 -24.895 2.9375 -23.875 2.9375 C-23.5965625 2.07125 -23.5965625 2.07125 -23.3125 1.1875 C-17.09846638 -8.53881349 -8.25687424 -4.05146626 0 0 Z " fill="#FAC50A" transform="translate(99.875,75.0625)"/>
<path d="M0 0 C5.87326671 1.37459434 12.63360002 3.63360002 17 8 C17.14784543 10.70198946 17.23505751 13.38165513 17.28125 16.0859375 C17.30886414 17.30502304 17.30886414 17.30502304 17.33703613 18.54873657 C17.39596953 21.15741524 17.44868644 23.76616098 17.5 26.375 C17.56763274 29.79961853 17.64136411 33.22402711 17.71875 36.6484375 C17.73232544 37.43914642 17.74590088 38.22985535 17.7598877 39.04452515 C17.83300909 42.26948711 17.97333757 44.92001271 19 48 C17.68 47.67 16.36 47.34 15 47 C15 34.46 15 21.92 15 9 C14.34 9 13.68 9 13 9 C13 8.34 13 7.68 13 7 C9.7 6.67 6.4 6.34 3 6 C2.36816237 18.62546986 1.89715619 31.23212235 1.875 43.875 C1.87048828 44.95579834 1.86597656 46.03659668 1.86132812 47.15014648 C1.86326172 48.14989502 1.86519531 49.14964355 1.8671875 50.1796875 C1.86831543 51.06382324 1.86944336 51.94795898 1.87060547 52.85888672 C1.86260082 55.05223867 1.86260082 55.05223867 3 57 C2.01 56.67 1.02 56.34 0 56 C-0.16780455 48.18560144 -0.32777196 40.37107121 -0.48217773 32.55639648 C-0.53569066 29.89555185 -0.59102682 27.23474325 -0.64819336 24.57397461 C-0.72984579 20.75903092 -0.80503326 16.9440075 -0.87890625 13.12890625 C-0.90594131 11.93100967 -0.93297638 10.7331131 -0.96083069 9.49891663 C-0.98092697 8.3978508 -1.00102325 7.29678497 -1.02172852 6.16235352 C-1.04171402 5.18750504 -1.06169952 4.21265656 -1.08229065 3.20826721 C-1 1 -1 1 0 0 Z " fill="#9D2352" transform="translate(7,97)"/>
<path d="M0 0 C5.16309352 -0.07822869 9.91902274 -0.04225175 15 1 C14.855625 1.680625 14.71125 2.36125 14.5625 3.0625 C14.13859432 5.27622968 13.82368942 7.51123355 13.5625 9.75 C13.376875 10.8225 13.19125 11.895 13 13 C10.23547967 14.38226016 7.9538637 14.09525387 4.875 14.0625 C2.93625 14.041875 0.9975 14.02125 -1 14 C-0.67 9.38 -0.34 4.76 0 0 Z " fill="#FCEC2C" transform="translate(72,41)"/>
<path d="M0 0 C2 2 2 2 2.125 5.125 C2.08375 6.07375 2.0425 7.0225 2 8 C2.33 7.67 2.66 7.34 3 7 C4.56172745 6.91314397 6.12729344 6.89297781 7.69140625 6.90234375 C8.63564453 6.90556641 9.57988281 6.90878906 10.55273438 6.91210938 C11.54595703 6.92048828 12.53917969 6.92886719 13.5625 6.9375 C14.55958984 6.94201172 15.55667969 6.94652344 16.58398438 6.95117188 C19.05604849 6.96299993 21.52799518 6.97948151 24 7 C24 7.33 24 7.66 24 8 C19.05 8 14.1 8 9 8 C9.33 8.99 9.66 9.98 10 11 C14.29 11.33 18.58 11.66 23 12 C23 12.66 23 13.32 23 14 C20.11584117 15.44207941 17.58278472 15.09394887 14.375 15.0625 C13.18648437 15.05347656 11.99796875 15.04445313 10.7734375 15.03515625 C9.85820313 15.02355469 8.94296875 15.01195312 8 15 C8 14.01 8 13.02 8 12 C5.69 12 3.38 12 1 12 C1.185625 13.134375 1.37125 14.26875 1.5625 15.4375 C2.16540861 20.11841548 1.65551135 24.33858592 1 29 C-3.29 29 -7.58 29 -12 29 C-12 28.67 -12 28.34 -12 28 C-4.57142857 26.71428571 -4.57142857 26.71428571 -1 28 C-1.33 26.02 -1.66 24.04 -2 22 C-2.66 22.33 -3.32 22.66 -4 23 C-4.66 22.67 -5.32 22.34 -6 22 C-6 21.34 -6 20.68 -6 20 C-5.01 19.67 -4.02 19.34 -3 19 C-0.44781974 15.49292236 -0.56467454 11.43074302 -0.375 7.25 C-0.31699219 6.20392578 -0.31699219 6.20392578 -0.2578125 5.13671875 C-0.16401376 3.42489182 -0.08093826 1.71248318 0 0 Z M-6 23 C-5.34 23 -4.68 23 -4 23 C-4.33 23.66 -4.66 24.32 -5 25 C-5.33 24.34 -5.66 23.68 -6 23 Z " fill="#F3BC17" transform="translate(93,10)"/>
<path d="M0 0 C17.82 0 35.64 0 54 0 C54 0.33 54 0.66 54 1 C41.79 1.33 29.58 1.66 17 2 C17 2.33 17 2.66 17 3 C12.05 3 7.1 3 2 3 C2 11.25 2 19.5 2 28 C3.32 27.67 4.64 27.34 6 27 C7.92040756 27.08314614 9.83873231 27.23272132 11.75 27.4375 C12.73484375 27.53933594 13.7196875 27.64117187 14.734375 27.74609375 C15.85585938 27.87177734 15.85585938 27.87177734 17 28 C16.67 28.66 16.34 29.32 16 30 C10.72 30 5.44 30 0 30 C0 20.1 0 10.2 0 0 Z " fill="#AE7B19" transform="translate(39,9)"/>
<path d="M0 0 C0.9796875 0.00644531 1.959375 0.01289062 2.96875 0.01953125 C3.98453125 0.03628906 5.0003125 0.05304687 6.046875 0.0703125 C7.078125 0.07933594 8.109375 0.08835938 9.171875 0.09765625 C11.71377787 0.12119239 14.2552078 0.15407227 16.796875 0.1953125 C16.796875 0.5253125 16.796875 0.8553125 16.796875 1.1953125 C11.846875 1.1953125 6.896875 1.1953125 1.796875 1.1953125 C2.126875 5.4853125 2.456875 9.7753125 2.796875 14.1953125 C-0.833125 14.1953125 -4.463125 14.1953125 -8.203125 14.1953125 C-8.533125 10.2353125 -8.863125 6.2753125 -9.203125 2.1953125 C-5.34572267 0.26661133 -4.08682857 -0.04752126 0 0 Z " fill="#F7A306" transform="translate(55.203125,40.8046875)"/>
<path d="M0 0 C0 18.48 0 36.96 0 56 C-3.96 57.98 -3.96 57.98 -8 60 C-8 59.01 -8 58.02 -8 57 C-5.03 56.505 -5.03 56.505 -2 56 C-2.33 38.84 -2.66 21.68 -3 4 C-6.75170424 5.65077902 -6.75170424 5.65077902 -10 8 C-11.99958364 8.04080783 -14.00045254 8.04254356 -16 8 C-14.42875661 4.85751322 -11.7022315 4.29871176 -8.5625 2.875 C-7.38816406 2.33617188 -6.21382812 1.79734375 -5.00390625 1.2421875 C-2 0 -2 0 0 0 Z " fill="#C33774" transform="translate(129,97)"/>
<path d="M0 0 C2.31 0 4.62 0 7 0 C7.0814222 2.22855574 7.13938079 4.45797655 7.1875 6.6875 C7.22230469 7.92886719 7.25710937 9.17023437 7.29296875 10.44921875 C6.98245941 14.21259197 6.38339252 16.09437229 4 19 C3.01 19 2.02 19 1 19 C1 19.66 1 20.32 1 21 C1.639375 20.814375 2.27875 20.62875 2.9375 20.4375 C3.618125 20.293125 4.29875 20.14875 5 20 C6 21 6 21 6.0625 24.0625 C6.041875 25.031875 6.02125 26.00125 6 27 C4.02 26.67 2.04 26.34 0 26 C0 17.42 0 8.84 0 0 Z M1 22 C1.66 22.66 2.32 23.32 3 24 C3 23.34 3 22.68 3 22 C2.34 22 1.68 22 1 22 Z " fill="#FBDB06" transform="translate(86,11)"/>
<path d="M0 0 C1.010625 0.0825 2.02125 0.165 3.0625 0.25 C5.37071663 3.71232494 5.33250989 5.16798316 5.3125 9.25 C5.31765625 10.301875 5.3228125 11.35375 5.328125 12.4375 C5.0625 15.25 5.0625 15.25 3.0625 18.25 C-0.5625 18.4375 -0.5625 18.4375 -3.9375 18.25 C-3.96434312 15.43743719 -3.98426188 12.62512759 -4 9.8125 C-4.00837891 9.01005859 -4.01675781 8.20761719 -4.02539062 7.38085938 C-4.0340143 5.33704779 -3.9897815 3.29316098 -3.9375 1.25 C-2.9375 0.25 -2.9375 0.25 0 0 Z " fill="#8A2E41" transform="translate(22.9375,13.75)"/>
<path d="M0 0 C0.66 0 1.32 0 2 0 C2 2.64 2 5.28 2 8 C-0.90034146 8.82977945 -3.47684408 9.12629132 -6.48974609 9.12939453 C-7.81164444 9.13412277 -7.81164444 9.13412277 -9.1602478 9.13894653 C-10.1051004 9.1369223 -11.049953 9.13489807 -12.0234375 9.1328125 C-13.00236969 9.13376923 -13.98130188 9.13472595 -14.98989868 9.13571167 C-17.05934717 9.13639168 -19.12879781 9.13454984 -21.19824219 9.13037109 C-24.35616894 9.12503184 -27.51395273 9.13031623 -30.671875 9.13671875 C-32.68489615 9.13605771 -34.6979172 9.13477602 -36.7109375 9.1328125 C-37.65174164 9.13483673 -38.59254578 9.13686096 -39.56185913 9.13894653 C-44.15577973 9.12263145 -48.48026886 8.94289813 -53 8 C-52.67 5.69 -52.34 3.38 -52 1 C-50.35 1 -48.7 1 -47 1 C-46.67 2.98 -46.34 4.96 -46 7 C-30.82 7 -15.64 7 0 7 C0 4.69 0 2.38 0 0 Z " fill="#BD8C2E" transform="translate(148,21)"/>
<path d="M0 0 C15.18 0 30.36 0 46 0 C46 0.99 46 1.98 46 3 C30.82 3 15.64 3 0 3 C0 2.01 0 1.02 0 0 Z " fill="#F8A003" transform="translate(102,25)"/>
<path d="M0 0 C5.09882455 1.5280389 9.65665659 3.71036856 14.375 6.125 C15.11105469 6.49753906 15.84710938 6.87007813 16.60546875 7.25390625 C18.40550358 8.1656122 20.20301402 9.08229932 22 10 C22 10.66 22 11.32 22 12 C22.66 12 23.32 12 24 12 C24.33 23.22 24.66 34.44 25 46 C20.61237247 44.90309312 17.85500277 43.29817473 14 41 C16.49092811 39.75453595 17.41080733 40.2232422 20 41 C20 41.66 20 42.32 20 43 C20.99 43 21.98 43 23 43 C22.34 33.1 21.68 23.2 21 13 C18.69 12.34 16.38 11.68 14 11 C13.67 10.01 13.34 9.02 13 8 C11.02 8 9.04 8 7 8 C6.6596875 7.071875 6.6596875 7.071875 6.3125 6.125 C4.62070165 3.38589791 3.00755839 2.94975528 0 2 C0 1.34 0 0.68 0 0 Z " fill="#F6CC22" transform="translate(44,116)"/>
<path d="M0 0 C0.66 0 1.32 0 2 0 C2 1.32 2 2.64 2 4 C2.99 4 3.98 4 5 4 C5.33 3.34 5.66 2.68 6 2 C6.33 2.99 6.66 3.98 7 5 C4.1969871 8.41617198 2.26197986 10.27245053 -2.125 10.75 C-3.40375 10.8325 -4.6825 10.915 -6 11 C-6.99 11.33 -7.98 11.66 -9 12 C-11.36522558 11.07796291 -13.70401807 10.08301035 -16 9 C-14.91796875 7.078125 -14.91796875 7.078125 -13 5 C-9.86328125 4.171875 -9.86328125 4.171875 -6.3125 3.75 C-5.13300781 3.60046875 -3.95351562 3.4509375 -2.73828125 3.296875 C-1.83464844 3.19890625 -0.93101563 3.1009375 0 3 C0 2.01 0 1.02 0 0 Z " fill="#1485AB" transform="translate(71,92)"/>
<path d="M0 0 C0.66 0.33 1.32 0.66 2 1 C0.08187166 2.91812834 -1.74463005 4.49642003 -4 6 C-4.99 6 -5.98 6 -7 6 C-7 15.57 -7 25.14 -7 35 C-5.68 35 -4.36 35 -3 35 C-2.67 34.01 -2.34 33.02 -2 32 C-0.68 32 0.64 32 2 32 C1.67 30.68 1.34 29.36 1 28 C1.825 27.896875 2.65 27.79375 3.5 27.6875 C6.88212748 27.02315353 9.77466979 26.01956621 12.96484375 24.765625 C15.93030802 23.65001848 18.94293354 22.8279555 22 22 C20.58989063 24.82021873 18.70669041 25.40470083 15.9375 26.875 C14.94105469 27.40609375 13.94460937 27.9371875 12.91796875 28.484375 C9.91204575 30.0456844 6.89078616 31.56749054 3.84765625 33.0546875 C1.91046565 34.04580827 0.05551275 35.13465209 -1.8125 36.25 C-5 38 -5 38 -8 38 C-8 27.11 -8 16.22 -8 5 C-8.66 4.67 -9.32 4.34 -10 4 C-9.16855469 3.69255859 -9.16855469 3.69255859 -8.3203125 3.37890625 C-7.59585938 3.10949219 -6.87140625 2.84007813 -6.125 2.5625 C-5.40570313 2.29566406 -4.68640625 2.02882813 -3.9453125 1.75390625 C-1.96351155 1.02083146 -1.96351155 1.02083146 0 0 Z " fill="#12678F" transform="translate(76,123)"/>
<path d="M0 0 C2.86724686 0.57344937 3.8614515 0.8614515 6 3 C5.01 3.33 4.02 3.66 3 4 C2.67 13.24 2.34 22.48 2 32 C5.85938975 31.08947925 5.85938975 31.08947925 9 30 C9 30.99 9 31.98 9 33 C9.66 33 10.32 33 11 33 C11.66 34.98 12.32 36.96 13 39 C11.3024406 38.41646396 9.64455275 37.71949183 8 37 C7.33162109 36.78601563 6.66324219 36.57203125 5.97460938 36.3515625 C3.30140817 35.20485474 1.85694705 34.26739382 0 32 C-1.03816141 26.54457124 -0.75265381 21.21191862 -0.5 15.6875 C-0.45984872 14.16871293 -0.42335074 12.64982459 -0.390625 11.13085938 C-0.30268966 7.41846189 -0.16478459 3.70987145 0 0 Z " fill="#A98023" transform="translate(28,108)"/>
<path d="M0 0 C0 0.66 0 1.32 0 2 C-0.66 2 -1.32 2 -2 2 C-2.33 3.32 -2.66 4.64 -3 6 C-4.32 5.67 -5.64 5.34 -7 5 C-7 5.66 -7 6.32 -7 7 C-8.65 7.33 -10.3 7.66 -12 8 C-12 11.3 -12 14.6 -12 18 C-10.02 17.67 -8.04 17.34 -6 17 C-5.67 16.01 -5.34 15.02 -5 14 C-3.35 14 -1.7 14 0 14 C0 13.34 0 12.68 0 12 C1.32 12 2.64 12 4 12 C4 11.34 4 10.68 4 10 C5.32 10 6.64 10 8 10 C8 9.34 8 8.68 8 8 C11.465 7.505 11.465 7.505 15 7 C11.2602065 10.22175759 7.36461037 12.50299164 2.9375 14.625 C2.02000977 15.07359375 2.02000977 15.07359375 1.08398438 15.53125 C-0.60863998 16.3583486 -2.30421792 17.17939508 -4 18 C-4.69996094 18.39960937 -5.39992188 18.79921875 -6.12109375 19.2109375 C-8.49549987 20.20808934 -10.45173676 20.14157018 -13 20 C-13.0810206 17.89646505 -13.13919907 15.79204048 -13.1875 13.6875 C-13.22230469 12.51574219 -13.25710937 11.34398438 -13.29296875 10.13671875 C-13 7 -13 7 -11.7421875 5.21875 C-9.86072714 3.90257145 -8.00182562 2.81958222 -5.9375 1.8125 C-5.24527344 1.46832031 -4.55304688 1.12414062 -3.83984375 0.76953125 C-2 0 -2 0 0 0 Z " fill="#ECAD23" transform="translate(81,100)"/>
<path d="M0 0 C0.763125 0.309375 1.52625 0.61875 2.3125 0.9375 C4.18789677 1.67893593 6.08684652 2.36228217 8 3 C8 3.66 8 4.32 8 5 C8.639375 5.0825 9.27875 5.165 9.9375 5.25 C14.23540589 6.30254838 17.9846496 8.14215131 22 10 C21.67 14.62 21.34 19.24 21 24 C21.99 24.33 22.98 24.66 24 25 C21.04893565 26.25348607 20.02593537 26.01044806 16.984375 24.78515625 C15.91703125 24.21667969 14.8496875 23.64820312 13.75 23.0625 C12.67234375 22.49660156 11.5946875 21.93070313 10.484375 21.34765625 C9.66453125 20.90292969 8.8446875 20.45820312 8 20 C8.598125 19.855625 9.19625 19.71125 9.8125 19.5625 C11.56150404 19.1127561 13.28677023 18.57107659 15 18 C15.33 18.99 15.66 19.98 16 21 C16.99 21.33 17.98 21.66 19 22 C18.67 18.37 18.34 14.74 18 11 C13.19157447 8.81758733 13.19157447 8.81758733 8.125 7.4375 C7.42375 7.293125 6.7225 7.14875 6 7 C5.67 6.34 5.34 5.68 5 5 C4.34 4.690625 3.68 4.38125 3 4.0625 C1 3 1 3 0 0 Z " fill="#C95E62" transform="translate(47,96)"/>
<path d="M0 0 C0.78375 0.37705078 1.5675 0.75410156 2.375 1.14257812 C4.29495053 2.06743234 6.210439 3.00153978 8.125 3.9375 C7.465 4.5975 6.805 5.2575 6.125 5.9375 C4.990625 5.298125 3.85625 4.65875 2.6875 4 C-1.23221189 2.00881421 -4.54617314 1.51861498 -8.88671875 1.21875 C-11.50710587 0.8480862 -13.02170524 -0.20920524 -14.875 -2.0625 C-15.205 -1.4025 -15.535 -0.7425 -15.875 -0.0625 C-17.85388961 0.66443904 -19.85454558 1.33566251 -21.875 1.9375 C-21.215 3.5875 -20.555 5.2375 -19.875 6.9375 C-21.89545442 6.33566251 -23.89611039 5.66443904 -25.875 4.9375 C-26.205 4.2775 -26.535 3.6175 -26.875 2.9375 C-25.885 2.9375 -24.895 2.9375 -23.875 2.9375 C-23.5965625 2.07125 -23.5965625 2.07125 -23.3125 1.1875 C-17.09846638 -8.53881349 -8.25687424 -4.05146626 0 0 Z " fill="#DFB217" transform="translate(99.875,75.0625)"/>
<path d="M0 0 C0.33 0 0.66 0 1 0 C1.02470696 5.35684878 1.04286331 10.71366444 1.05493164 16.07055664 C1.0599624 17.89315366 1.06678769 19.71574665 1.07543945 21.53833008 C1.08755997 24.15707394 1.09324086 26.77576447 1.09765625 29.39453125 C1.10281754 30.21025101 1.10797882 31.02597076 1.11329651 31.8664093 C1.1136246 35.17013929 1.05225621 37.84323138 0 41 C-1.32 41 -2.64 41 -4 41 C-4 41.66 -4 42.32 -4 43 C-4.99 43 -5.98 43 -7 43 C-7 43.66 -7 44.32 -7 45 C-7.66 45 -8.32 45 -9 45 C-9 45.66 -9 46.32 -9 47 C-10.4117783 47.53394179 -11.82970244 48.05165104 -13.25 48.5625 C-14.03890625 48.85253906 -14.8278125 49.14257812 -15.640625 49.44140625 C-18.22741227 50.05384098 -19.49494634 49.72332269 -22 49 C-21.05362671 48.74536987 -21.05362671 48.74536987 -20.08813477 48.4855957 C-12.68800456 46.22139204 -5.63422857 43.44048302 -1 37 C2.71696697 25.59213835 0.88669834 11.7736325 0 0 Z " fill="#A93E72" transform="translate(112,105)"/>
<path d="M0 0 C1.28302002 0.01571045 2.56604004 0.0314209 3.88793945 0.04760742 C4.571772 0.05185226 5.25560455 0.05609711 5.9601593 0.06047058 C8.14091632 0.07724264 10.32074379 0.11488961 12.5012207 0.15307617 C13.98102505 0.16812503 15.4608439 0.18181309 16.94067383 0.1940918 C20.56532407 0.22714048 24.18943164 0.27891171 27.8137207 0.34057617 C27.8137207 1.33057617 27.8137207 2.32057617 27.8137207 3.34057617 C16.5937207 3.34057617 5.3737207 3.34057617 -6.1862793 3.34057617 C-3.1862793 0.34057617 -3.1862793 0.34057617 0 0 Z " fill="#FABD02" transform="translate(120.186279296875,21.659423828125)"/>
<path d="M0 0 C0 1.65 0 3.3 0 5 C-0.33 4.34 -0.66 3.68 -1 3 C-5.67552186 4.6717903 -5.67552186 4.6717903 -9.5 7.625 C-11 9 -11 9 -14.5625 9.4375 C-16.2640625 9.7159375 -16.2640625 9.7159375 -18 10 C-19.1500831 11.96672915 -19.1500831 11.96672915 -20 14 C-22.91422611 15.07366225 -24.315664 15.31375694 -27.1640625 14.0078125 C-27.76992187 13.67523438 -28.37578125 13.34265625 -29 13 C-28.45061768 12.74307373 -27.90123535 12.48614746 -27.33520508 12.22143555 C-24.82633199 11.04621961 -22.3194091 9.86689925 -19.8125 8.6875 C-18.94818359 8.28337891 -18.08386719 7.87925781 -17.19335938 7.46289062 C-12.99642357 5.48502432 -8.93007276 3.48014301 -5 1 C-3 0 -3 0 0 0 Z " fill="#21BFD7" transform="translate(107,109)"/>
<path d="M0 0 C-0.625 1.9375 -0.625 1.9375 -2 4 C-3.485 4.2165625 -3.485 4.2165625 -5 4.4375 C-5.99 4.623125 -6.98 4.80875 -8 5 C-9.32481546 7.39529669 -9.32481546 7.39529669 -10 10 C-10.66 10.66 -11.32 11.32 -12 12 C-7.05 11.67 -2.1 11.34 3 11 C3 11.33 3 11.66 3 12 C-4.55181241 14.31177931 -12.16516106 14.6123387 -20 15 C-20.33 14.34 -20.66 13.68 -21 13 C-5.5 0 -5.5 0 0 0 Z " fill="#044770" transform="translate(85,182)"/>
<path d="M0 0 C1.32 0 2.64 0 4 0 C3.835 0.763125 3.67 1.52625 3.5 2.3125 C2.90854604 5.03596236 2.90854604 5.03596236 3 8 C2.87623159 12.66738249 2.71789276 17.3335787 2.5625 22 C2.50352539 23.94519531 2.50352539 23.94519531 2.44335938 25.9296875 C2.40146484 27.16976562 2.35957031 28.40984375 2.31640625 29.6875 C2.27974854 30.82574219 2.24309082 31.96398437 2.20532227 33.13671875 C2 36 2 36 1 39 C0.34 38.67 -0.32 38.34 -1 38 C-0.67 25.46 -0.34 12.92 0 0 Z " fill="#E44285" transform="translate(113,105)"/>
<path d="M0 0 C1.32 0 2.64 0 4 0 C4.02505615 1.10512939 4.0501123 2.21025879 4.07592773 3.34887695 C4.17006509 7.44714044 4.27027041 11.54523694 4.37231445 15.64331055 C4.41563934 17.41735937 4.45731619 19.19144923 4.49731445 20.96557617 C4.5550762 23.51493705 4.61875362 26.0640918 4.68359375 28.61328125 C4.70030624 29.40712723 4.71701874 30.20097321 4.73423767 31.01887512 C4.82117718 34.24683077 4.97250366 36.91751099 6 40 C4.68 39.67 3.36 39.34 2 39 C2 26.46 2 13.92 2 1 C1.34 0.67 0.68 0.34 0 0 Z " fill="#B62E59" transform="translate(20,105)"/>
<path d="M0 0 C2.875 2.0625 2.875 2.0625 5 4 C3.35 4.33 1.7 4.66 0 5 C0 4.34 0 3.68 0 3 C-5.94 3.495 -5.94 3.495 -12 4 C-12.33 4.99 -12.66 5.98 -13 7 C-16.00791911 9.04108797 -18.42195344 9.19878036 -22 9 C-21 6 -21 6 -17.83203125 4.140625 C-16.49747605 3.49929339 -15.15732336 2.86951105 -13.8125 2.25 C-13.15185547 1.92128906 -12.49121094 1.59257813 -11.81054688 1.25390625 C-7.50954088 -0.75860791 -4.71732816 -1.45833222 0 0 Z " fill="#C25B6E" transform="translate(53,71)"/>
<path d="M0 0 C2 2 2 2 2.0625 4.875 C2.041875 5.90625 2.02125 6.9375 2 8 C2.43941523 10.26566343 2.43941523 10.26566343 3 12 C2.34 12 1.68 12 1 12 C1.185625 13.134375 1.37125 14.26875 1.5625 15.4375 C2.16540861 20.11841548 1.65551135 24.33858592 1 29 C-3.29 29 -7.58 29 -12 29 C-12 28.67 -12 28.34 -12 28 C-4.57142857 26.71428571 -4.57142857 26.71428571 -1 28 C-1.33 26.02 -1.66 24.04 -2 22 C-2.66 22.33 -3.32 22.66 -4 23 C-4.66 22.67 -5.32 22.34 -6 22 C-6 21.34 -6 20.68 -6 20 C-5.01 19.67 -4.02 19.34 -3 19 C-0.44781974 15.49292236 -0.56467454 11.43074302 -0.375 7.25 C-0.31699219 6.20392578 -0.31699219 6.20392578 -0.2578125 5.13671875 C-0.16401376 3.42489182 -0.08093826 1.71248318 0 0 Z M-6 23 C-5.34 23 -4.68 23 -4 23 C-4.33 23.66 -4.66 24.32 -5 25 C-5.33 24.34 -5.66 23.68 -6 23 Z " fill="#DEBC17" transform="translate(93,10)"/>
<path d="M0 0 C2.33294775 -0.04241723 4.66702567 -0.04092937 7 0 C8 1 8 1 8.0625 4.0625 C8.041875 5.031875 8.02125 6.00125 8 7 C6.68 7.33 5.36 7.66 4 8 C4 9.32 4 10.64 4 12 C2.35 12 0.7 12 -1 12 C-0.67 8.04 -0.34 4.08 0 0 Z " fill="#ED387E" transform="translate(69,58)"/>
<path d="M0 0 C2.64 0 5.28 0 8 0 C8.33 0.99 8.66 1.98 9 3 C9.99 3 10.98 3 12 3 C12 3.66 12 4.32 12 5 C11.0409375 5.37125 11.0409375 5.37125 10.0625 5.75 C7.86828783 6.82410942 7.86828783 6.82410942 7.0625 8.9375 C6.77027549 11.11153172 6.77027549 11.11153172 8.4375 12.75 C8.953125 13.1625 9.46875 13.575 10 14 C8.35 14 6.7 14 5 14 C4.89989173 10.49621063 5.27953791 7.42219494 6 4 C6 3.01 6 2.02 6 1 C4.68 1 3.36 1 2 1 C1.67 5.62 1.34 10.24 1 15 C1.99 15.33 2.98 15.66 4 16 C4 16.66 4 17.32 4 18 C4.66 18.33 5.32 18.66 6 19 C2.74333728 18.43850643 1.04376677 17.62770014 -1 15 C-2.05907573 11.93901284 -1.97188802 10.02228683 -1.0625 6.9375 C-0.32617654 4.39694023 0 2.69602824 0 0 Z " fill="#297284" transform="translate(64,73)"/>
<path d="M0 0 C7.26 0 14.52 0 22 0 C22 2.97 22 5.94 22 9 C19.5 11.0625 19.5 11.0625 17 12 C17 11.01 17 10.02 17 9 C18.32 8.67 19.64 8.34 21 8 C20.67 6.02 20.34 4.04 20 2 C18.95199219 2.08378906 17.90398437 2.16757812 16.82421875 2.25390625 C15.44533619 2.35708794 14.06642857 2.45993506 12.6875 2.5625 C11.99720703 2.61857422 11.30691406 2.67464844 10.59570312 2.73242188 C7.37487726 2.96581505 5.09672655 3.03224218 2 2 C1.67 2.99 1.34 3.98 1 5 C1.66 5 2.32 5 3 5 C3.66 6.98 4.32 8.96 5 11 C1.125 9.125 1.125 9.125 0 8 C0 5.36 0 2.72 0 0 Z " fill="#A12F48" transform="translate(56,57)"/>
<path d="M0 0 C1.65 0 3.3 0 5 0 C5 4.62 5 9.24 5 14 C3.68 14 2.36 14 1 14 C-0.20568053 9.32798795 -0.09382426 4.78503708 0 0 Z " fill="#EF2367" transform="translate(20,16)"/>
<path d="M0 0 C2.31 0 4.62 0 7 0 C7.14285714 7.42857143 7.14285714 7.42857143 6 11 C5.01 11 4.02 11 3 11 C2.34 10.01 1.68 9.02 1 8 C0.67 7.67 0.34 7.34 0 7 C-0.04092937 4.66702567 -0.04241723 2.33294775 0 0 Z " fill="#E31A5A" transform="translate(62,59)"/>
<path d="M0 0 C2.31 0 4.62 0 7 0 C6.67 1.32 6.34 2.64 6 4 C5.67 3.34 5.34 2.68 5 2 C3.68 1.67 2.36 1.34 1 1 C1 7.6 1 14.2 1 21 C2.32 20.67 3.64 20.34 5 20 C6 21 6 21 6.0625 24.0625 C6.041875 25.031875 6.02125 26.00125 6 27 C4.02 26.67 2.04 26.34 0 26 C0 17.42 0 8.84 0 0 Z M1 22 C1.66 22.66 2.32 23.32 3 24 C3 23.34 3 22.68 3 22 C2.34 22 1.68 22 1 22 Z " fill="#FCE41D" transform="translate(86,11)"/>
<path d="M0 0 C1.65 0 3.3 0 5 0 C4.855625 0.680625 4.71125 1.36125 4.5625 2.0625 C3.93054091 5.36273082 3.45686059 8.67144426 3 12 C1.35 12.33 -0.3 12.66 -2 13 C-1.85851011 11.3954444 -1.71164314 9.79136233 -1.5625 8.1875 C-1.48128906 7.29417969 -1.40007812 6.40085937 -1.31640625 5.48046875 C-1 3 -1 3 0 0 Z " fill="#FAD806" transform="translate(82,42)"/>
<path d="M0 0 C1.65 0 3.3 0 5 0 C5.33 1.98 5.66 3.96 6 6 C12.6 6 19.2 6 26 6 C26 6.33 26 6.66 26 7 C17.09 7 8.18 7 -1 7 C-0.67 4.69 -0.34 2.38 0 0 Z " fill="#E38720" transform="translate(96,22)"/>
<path d="M0 0 C0.66 0.33 1.32 0.66 2 1 C0.08187166 2.91812834 -1.74463005 4.49642003 -4 6 C-4.99 6 -5.98 6 -7 6 C-6.67 16.56 -6.34 27.12 -6 38 C-6.66 38 -7.32 38 -8 38 C-8 27.11 -8 16.22 -8 5 C-8.66 4.67 -9.32 4.34 -10 4 C-9.16855469 3.69255859 -9.16855469 3.69255859 -8.3203125 3.37890625 C-7.59585938 3.10949219 -6.87140625 2.84007813 -6.125 2.5625 C-5.40570313 2.29566406 -4.68640625 2.02882813 -3.9453125 1.75390625 C-1.96351155 1.02083146 -1.96351155 1.02083146 0 0 Z " fill="#4CA893" transform="translate(76,123)"/>
<path d="M0 0 C0 3.3 0 6.6 0 10 C-1.32 9.67 -2.64 9.34 -4 9 C-4.33 8.34 -4.66 7.68 -5 7 C-5.99 7.495 -5.99 7.495 -7 8 C-7 7.34 -7 6.68 -7 6 C-7.66 5.67 -8.32 5.34 -9 5 C-4.5 0 -4.5 0 0 0 Z " fill="#FB536F" transform="translate(66,108)"/>
<path d="M0 0 C-3.03764089 1.6326083 -6.08078323 3.25469108 -9.125 4.875 C-9.9809375 5.33519531 -10.836875 5.79539062 -11.71875 6.26953125 C-16.07134722 8.57975593 -20.23626578 10.64116434 -25 12 C-25 11.34 -25 10.68 -25 10 C-24.360625 9.896875 -23.72125 9.79375 -23.0625 9.6875 C-22.0415625 9.3471875 -22.0415625 9.3471875 -21 9 C-20.67 8.01 -20.34 7.02 -20 6 C-18.35 6 -16.7 6 -15 6 C-15 5.34 -15 4.68 -15 4 C-13.68 4 -12.36 4 -11 4 C-11 3.34 -11 2.68 -11 2 C-9.68 2 -8.36 2 -7 2 C-7 1.34 -7 0.68 -7 0 C-3.98968256 -0.93423645 -3.13349732 -1.04449911 0 0 Z " fill="#AF8D1F" transform="translate(96,108)"/>
<path d="M0 0 C2.1640625 0.2421875 2.1640625 0.2421875 4.625 0.875 C5.44226563 1.07867187 6.25953125 1.28234375 7.1015625 1.4921875 C8.04128906 1.74355469 8.04128906 1.74355469 9 2 C9 2.66 9 3.32 9 4 C9.66 4 10.32 4 11 4 C11.33 5.65 11.66 7.3 12 9 C5.6 12.07692308 5.6 12.07692308 2.5625 11.6875 C2.046875 11.460625 1.53125 11.23375 1 11 C3.31 10.01 5.62 9.02 8 8 C5.27521226 4.63408573 1.93143208 3.55773724 -2 2 C-1.34 1.34 -0.68 0.68 0 0 Z " fill="#BF9C20" transform="translate(88,84)"/>
<path d="M0 0 C0.33 0 0.66 0 1 0 C1.33 11.22 1.66 22.44 2 34 C-2.38762753 32.90309312 -5.14499723 31.29817473 -9 29 C-6.50907189 27.75453595 -5.58919267 28.2232422 -3 29 C-3 29.66 -3 30.32 -3 31 C-2.01 31 -1.02 31 0 31 C0 20.77 0 10.54 0 0 Z " fill="#A39A3E" transform="translate(67,128)"/>
<path d="M0 0 C-1.31213059 3.93639176 -2.82801522 4.28653597 -6.4375 6.1875 C-7.92056641 6.98220703 -7.92056641 6.98220703 -9.43359375 7.79296875 C-12 9 -12 9 -14 9 C-14 7.68 -14 6.36 -14 5 C-12.02 5 -10.04 5 -8 5 C-7.9175 4.38125 -7.835 3.7625 -7.75 3.125 C-7 1 -7 1 -5.125 -0.3125 C-3 -1 -3 -1 0 0 Z " fill="#C09D21" transform="translate(128,89)"/>
<path d="M0 0 C2.31 0 4.62 0 7 0 C6.67 1.32 6.34 2.64 6 4 C5.34 4 4.68 4 4 4 C3.67 5.98 3.34 7.96 3 10 C2.01 10 1.02 10 0 10 C0 6.7 0 3.4 0 0 Z " fill="#FABF09" transform="translate(29,18)"/>
<path d="M0 0 C0.33 0 0.66 0 1 0 C0.99887207 0.70608398 0.99774414 1.41216797 0.99658203 2.13964844 C1.00870003 5.34406842 1.06634752 8.54610808 1.125 11.75 C1.12242188 12.86117187 1.11984375 13.97234375 1.1171875 15.1171875 C0.99863894 20.76352918 0.99863894 20.76352918 3.39355469 25.58789062 C5.21374881 26.79267835 5.21374881 26.79267835 8 28 C8 28.66 8 29.32 8 30 C8.99 30.33 9.98 30.66 11 31 C10.34 31.33 9.68 31.66 9 32 C2.5 28.75 2.5 28.75 0 25 C-0.22705078 22.36450195 -0.22705078 22.36450195 -0.1953125 19.23828125 C-0.18886719 18.12001953 -0.18242188 17.00175781 -0.17578125 15.84960938 C-0.15902344 14.68236328 -0.14226563 13.51511719 -0.125 12.3125 C-0.11597656 11.13365234 -0.10695313 9.95480469 -0.09765625 8.74023438 C-0.07406423 5.82661974 -0.0411454 2.91341108 0 0 Z " fill="#A21748" transform="translate(8,127)"/>
<path d="M0 0 C0 0.66 0 1.32 0 2 C-0.86625 2.3403125 -0.86625 2.3403125 -1.75 2.6875 C-4.22479878 3.90551554 -4.22479878 3.90551554 -5.75 6.6875 C-8 9 -8 9 -10.03125 9.1015625 C-12.03747823 8.8401877 -14.02269667 8.42841572 -16 8 C-13.10414095 5.70351643 -10.1827969 3.95652443 -6.875 2.3125 C-5.57175781 1.65701172 -5.57175781 1.65701172 -4.2421875 0.98828125 C-2 0 -2 0 0 0 Z " fill="#1E99AD" transform="translate(94,115)"/>
<path d="M0 0 C2.97 0.495 2.97 0.495 6 1 C5.01 3.97 4.02 6.94 3 10 C2.01 10 1.02 10 0 10 C0 6.7 0 3.4 0 0 Z " fill="#FCB705" transform="translate(69,108)"/>
<path d="M0 0 C0.763125 0.309375 1.52625 0.61875 2.3125 0.9375 C4.18789677 1.67893593 6.08684652 2.36228217 8 3 C8 3.66 8 4.32 8 5 C8.70125 5.12375 9.4025 5.2475 10.125 5.375 C13.17656387 6.03838345 16.05340938 6.97211955 19 8 C19 8.33 19 8.66 19 9 C14.20291909 9.19188324 10.43866361 8.9022844 6 7 C5.67 6.34 5.34 5.68 5 5 C4.34 4.690625 3.68 4.38125 3 4.0625 C1 3 1 3 0 0 Z " fill="#B55D7A" transform="translate(47,96)"/>
<path d="M0 0 C-0.33 0.66 -0.66 1.32 -1 2 C-3.5625 2.625 -3.5625 2.625 -6 3 C-6.33 3.99 -6.66 4.98 -7 6 C-5.68 6.33 -4.36 6.66 -3 7 C-7.17587745 8.39195915 -9.13474776 6.82323219 -13 5 C-9.39164193 -0.32662382 -6.21338811 -0.11723374 0 0 Z " fill="#2E78A6" transform="translate(68,96)"/>
<path d="M0 0 C2 1 2 1 2 1 Z M-3 1 C-2.01 1 -1.02 1 0 1 C0.33 3.31 0.66 5.62 1 8 C-1.64 8.33 -4.28 8.66 -7 9 C-7.33 8.34 -7.66 7.68 -8 7 C-7.360625 6.38125 -6.72125 5.7625 -6.0625 5.125 C-3.96116416 3.17402388 -3.96116416 3.17402388 -3 1 Z " fill="#035582" transform="translate(80,186)"/>
<path d="M0 0 C0.33 0.99 0.66 1.98 1 3 C1.66 3 2.32 3 3 3 C3.66 4.98 4.32 6.96 5 9 C0.69235185 7.43358249 -3.06171464 5.31663844 -7 3 C-6.401875 2.87625 -5.80375 2.7525 -5.1875 2.625 C-2.73768652 2.04524015 -2.73768652 2.04524015 0 0 Z " fill="#C08514" transform="translate(36,138)"/>
<path d="M0 0 C1.79158489 -0.02696365 3.58328473 -0.04637917 5.375 -0.0625 C6.37273437 -0.07410156 7.37046875 -0.08570313 8.3984375 -0.09765625 C11 0 11 0 13 1 C12.67 1.99 12.34 2.98 12 4 C9.03 4 6.06 4 3 4 C3 3.34 3 2.68 3 2 C2.01 1.34 1.02 0.68 0 0 Z " fill="#0A7BA4" transform="translate(107,181)"/>
<path d="M0 0 C0 0.66 0 1.32 0 2 C-1.65848177 3.01351664 -3.32665961 4.01120795 -5 5 C-5.598125 5.721875 -6.19625 6.44375 -6.8125 7.1875 C-10.13818923 9.94307107 -12.7693661 9.28204226 -17 9 C-14.6878035 6.6878035 -12.38115985 5.48043692 -9.5 3.9375 C-8.03046875 3.14666016 -8.03046875 3.14666016 -6.53125 2.33984375 C-2.11078717 0 -2.11078717 0 0 0 Z " fill="#A13967" transform="translate(90,155)"/>
<path d="M0 0 C6.43557831 3.17023562 12.82195683 6.34933813 19 10 C19 10.33 19 10.66 19 11 C14.7340054 11.35549955 13.31466092 10.5460439 10 8 C8.26860386 7.06871874 6.51761712 6.17305044 4.75 5.3125 C3.85796875 4.87550781 2.9659375 4.43851563 2.046875 3.98828125 C1.37140625 3.66214844 0.6959375 3.33601562 0 3 C0 2.01 0 1.02 0 0 Z " fill="#8E2D4C" transform="translate(38,150)"/>
<path d="M0 0 C2.33294775 -0.04241723 4.66702567 -0.04092937 7 0 C8 1 8 1 8.0625 4.0625 C8.041875 5.031875 8.02125 6.00125 8 7 C6.68 7.33 5.36 7.66 4 8 C3.67 6.02 3.34 4.04 3 2 C2.01 1.67 1.02 1.34 0 1 C0 0.67 0 0.34 0 0 Z " fill="#E94A87" transform="translate(69,58)"/>
<path d="M0 0 C0.33 0.66 0.66 1.32 1 2 C1.99 1.67 2.98 1.34 4 1 C4.33 1.99 4.66 2.98 5 4 C4.01 4.495 4.01 4.495 3 5 C2.67 5.99 2.34 6.98 2 8 C1.01 8 0.02 8 -1 8 C-1.66 7.34 -2.32 6.68 -3 6 C-3 3 -3 3 -1.5 1.3125 C-0.7575 0.6628125 -0.7575 0.6628125 0 0 Z " fill="#FB6176" transform="translate(46,76)"/>
<path d="M0 0 C0 0.33 0 0.66 0 1 C-1.670625 1.2165625 -1.670625 1.2165625 -3.375 1.4375 C-6.82142047 1.78372035 -6.82142047 1.78372035 -9 3 C-9 3.66 -9 4.32 -9 5 C-11.64 5 -14.28 5 -17 5 C-11.97633788 -0.86093914 -7.13283458 -1.35277897 0 0 Z " fill="#0F4C6F" transform="translate(102,177)"/>
<path d="M0 0 C-0.625 1.9375 -0.625 1.9375 -2 4 C-4 4.33333333 -6 4.66666667 -8 5 C-9.43637698 6.95163118 -9.43637698 6.95163118 -10 9 C-11.32 8.67 -12.64 8.34 -14 8 C-4.57142857 0 -4.57142857 0 0 0 Z " fill="#0A4269" transform="translate(85,182)"/>
<path d="M0 0 C3.63 1.98 7.26 3.96 11 6 C9.68 6.33 8.36 6.66 7 7 C6.01 7.33 5.02 7.66 4 8 C3.67 7.01 3.34 6.02 3 5 C2.34 5 1.68 5 1 5 C1 4.34 1 3.68 1 3 C0.34 2.67 -0.32 2.34 -1 2 C-0.67 1.34 -0.34 0.68 0 0 Z " fill="#9F2549" transform="translate(26,143)"/>
<path d="M0 0 C0.763125 0.309375 1.52625 0.61875 2.3125 0.9375 C4.18789677 1.67893593 6.08684652 2.36228217 8 3 C9.59412284 6.18824568 9.10174735 9.62896662 9.0625 13.125 C9.05798828 13.87910156 9.05347656 14.63320312 9.04882812 15.41015625 C9.03703499 17.27347127 9.01909942 19.13674555 9 21 C8.67 21 8.34 21 8 21 C7.99742188 19.95199219 7.99484375 18.90398437 7.9921875 17.82421875 C7.95466508 16.44526973 7.91551759 15.06636426 7.875 13.6875 C7.87757812 12.99720703 7.88015625 12.30691406 7.8828125 11.59570312 C7.85516124 9.29299308 7.85516124 9.29299308 7 6 C4.08402017 4.14590911 4.08402017 4.14590911 1 3 C0.67 2.01 0.34 1.02 0 0 Z " fill="#C2AD2B" transform="translate(58,123)"/>
<path d="M0 0 C0.66 0.33 1.32 0.66 2 1 C-0.2863012 2.36402043 -2.57821749 3.71634274 -4.875 5.0625 C-5.85146484 5.64741211 -5.85146484 5.64741211 -6.84765625 6.24414062 C-8.53065725 7.22444533 -10.26296199 8.11898432 -12 9 C-12.66 8.67 -13.32 8.34 -14 8 C-13 5 -13 5 -11.328125 4.12109375 C-10.64234375 3.89550781 -9.9565625 3.66992188 -9.25 3.4375 C-8.53070313 3.19386719 -7.81140625 2.95023438 -7.0703125 2.69921875 C-6.38710937 2.46847656 -5.70390625 2.23773438 -5 2 C-4.05125 1.5875 -3.1025 1.175 -2.125 0.75 C-1.42375 0.5025 -0.7225 0.255 0 0 Z " fill="#0C5779" transform="translate(96,145)"/>
<path d="M0 0 C2.97 0 5.94 0 9 0 C9 0.66 9 1.32 9 2 C5.5980513 4.09350689 2.94727588 4.17942163 -1 4 C-0.67 2.68 -0.34 1.36 0 0 Z " fill="#0EB0EA" transform="translate(62,98)"/>
<path d="M0 0 C1.65 0 3.3 0 5 0 C5 0.66 5 1.32 5 2 C4.01 2.33 3.02 2.66 2 3 C2.33 7.29 2.66 11.58 3 16 C2.34 16 1.68 16 1 16 C0.63409254 14.27327966 0.28277805 12.54346345 -0.0625 10.8125 C-0.35833984 9.36810547 -0.35833984 9.36810547 -0.66015625 7.89453125 C-1.00423947 4.96389138 -0.74164697 2.83692932 0 0 Z " fill="#AE771F" transform="translate(45,40)"/>
<path d="M0 0 C5.41764853 0.75595096 10.44441733 1.50873768 14 6 C14 6.66 14 7.32 14 8 C8.76481294 6.56032356 4.36973991 4.18303389 0 1 C0 0.67 0 0.34 0 0 Z " fill="#7F153B" transform="translate(26,163)"/>
<path d="M0 0 C-1.59622656 1.03320481 -3.20229106 2.05122429 -4.8125 3.0625 C-6.15248047 3.91521484 -6.15248047 3.91521484 -7.51953125 4.78515625 C-10 6 -10 6 -13 5 C-13 4.34 -13 3.68 -13 3 C-12.01 3 -11.02 3 -10 3 C-9.67 2.01 -9.34 1.02 -9 0 C-2.25 -1.125 -2.25 -1.125 0 0 Z " fill="#B7901D" transform="translate(109,101)"/>
<path d="M0 0 C2.64 0.33 5.28 0.66 8 1 C8 1.66 8 2.32 8 3 C10.31 3.33 12.62 3.66 15 4 C14.34 4.66 13.68 5.32 13 6 C7.77636459 5.75704021 4.33455057 3.68742135 0 1 C0 0.67 0 0.34 0 0 Z " fill="#7E1B43" transform="translate(57,181)"/>
<path d="M0 0 C1.32 0 2.64 0 4 0 C4 0.66 4 1.32 4 2 C4.66 2.04125 5.32 2.0825 6 2.125 C10.38913955 3.4051657 13.48526529 6.14809367 17 9 C12.90540797 9 10.23249165 7.03072724 6.8125 5 C6.15830078 4.6184375 5.50410156 4.236875 4.83007812 3.84375 C3.21666455 2.90161068 1.60787702 1.95155734 0 1 C0 0.67 0 0.34 0 0 Z " fill="#79153C" transform="translate(40,171)"/>
<path d="M0 0 C0.66 0.33 1.32 0.66 2 1 C1.67 1.66 1.34 2.32 1 3 C2.5778125 3.3403125 2.5778125 3.3403125 4.1875 3.6875 C8.1597906 4.79360531 10.29599637 6.88629885 13 10 C8.0276578 8.50829734 3.58154261 6.39542583 -1 4 C-0.67 2.68 -0.34 1.36 0 0 Z " fill="#8F4156" transform="translate(9,88)"/>
<path d="M0 0 C3.63 0.66 7.26 1.32 11 2 C10.67 2.99 10.34 3.98 10 5 C6.6875 5.3125 6.6875 5.3125 3 5 C1.0625 2.5 1.0625 2.5 0 0 Z " fill="#71284D" transform="translate(61,68)"/>
<path d="M0 0 C1.32 0 2.64 0 4 0 C4 2.31 4 4.62 4 7 C2.35 7 0.7 7 -1 7 C-0.67 4.69 -0.34 2.38 0 0 Z " fill="#DA5452" transform="translate(96,22)"/>
<path d="M0 0 C1.98 0 3.96 0 6 0 C5.67 1.32 5.34 2.64 5 4 C5.66 4.33 6.32 4.66 7 5 C4.69 4.67 2.38 4.34 0 4 C0 2.68 0 1.36 0 0 Z " fill="#042043" transform="translate(17,181)"/>
<path d="M0 0 C1.65 0.99 3.3 1.98 5 3 C2.47043472 6.0916909 -0.22454612 6.90931332 -4 8 C-3.67 6.68 -3.34 5.36 -3 4 C-1.68 4 -0.36 4 1 4 C0.67 2.68 0.34 1.36 0 0 Z " fill="#A4566E" transform="translate(58,75)"/>
<path d="M0 0 C-1.32 0.33 -2.64 0.66 -4 1 C-4 3.31 -4 5.62 -4 8 C-4.185625 7.38125 -4.37125 6.7625 -4.5625 6.125 C-6.71437233 2.94397134 -9.37533763 2.80548053 -13 2 C-13 1.67 -13 1.34 -13 1 C-8.62426048 0.40667939 -4.42471556 -0.13827236 0 0 Z " fill="#7D7217" transform="translate(93,39)"/>
<path d="M0 0 C1.65 0 3.3 0 5 0 C2.25604436 2.94721162 -0.38337216 5.19168608 -4 7 C-4.66 6.67 -5.32 6.34 -6 6 C-5.67 5.01 -5.34 4.02 -5 3 C-3.35 2.67 -1.7 2.34 0 2 C0 1.34 0 0.68 0 0 Z " fill="#9F2455" transform="translate(85,174)"/>
<path d="M0 0 C4.9723422 1.49170266 9.41845739 3.60457417 14 6 C10.98968256 6.93423645 10.13349732 7.04449911 7 6 C7 5.34 7 4.68 7 4 C4.03 3.505 4.03 3.505 1 3 C0.67 2.01 0.34 1.02 0 0 Z " fill="#C2A73D" transform="translate(44,116)"/>
<path d="M0 0 C0.33 0 0.66 0 1 0 C1 2.31 1 4.62 1 7 C1.99 7.33 2.98 7.66 4 8 C4 8.66 4 9.32 4 10 C4.66 10.33 5.32 10.66 6 11 C2.74333728 10.43850643 1.04376677 9.62770014 -1 7 C-1.8125 5 -1.8125 5 -2 3 C-1.34 2.01 -0.68 1.02 0 0 Z " fill="#1474A0" transform="translate(64,81)"/>
<path d="M0 0 C4.03520597 1.58962659 8.01811282 3.28232318 12 5 C12 5.33 12 5.66 12 6 C9.69 6 7.38 6 5 6 C5 5.34 5 4.68 5 4 C4.360625 3.896875 3.72125 3.79375 3.0625 3.6875 C2.381875 3.460625 1.70125 3.23375 1 3 C0.67 2.01 0.34 1.02 0 0 Z " fill="#A99119" transform="translate(109,80)"/>
<path d="M0 0 C-1.26239712 0.86658615 -2.53527501 1.71792059 -3.8125 2.5625 C-4.87404297 3.27599609 -4.87404297 3.27599609 -5.95703125 4.00390625 C-8 5 -8 5 -11 4 C-10.67 3.01 -10.34 2.02 -10 1 C-6.19730268 -0.6900877 -3.94727832 -1.19873962 0 0 Z " fill="#9D2458" transform="translate(101,169)"/>
<path d="M0 0 C0.33 0 0.66 0 1 0 C1.12375 1.03125 1.2475 2.0625 1.375 3.125 C1.93889814 6.62116846 2.78682059 9.68397627 4 13 C2.68 13 1.36 13 0 13 C0 8.71 0 4.42 0 0 Z " fill="#0783B1" transform="translate(69,145)"/>
<path d="M0 0 C0 0.66 0 1.32 0 2 C-0.66 2 -1.32 2 -2 2 C-2.33 3.32 -2.66 4.64 -3 6 C-5.31 5.67 -7.62 5.34 -10 5 C-3.63636364 0 -3.63636364 0 0 0 Z " fill="#BFA223" transform="translate(81,100)"/>
<path d="M0 0 C0.66 0.33 1.32 0.66 2 1 C2 1.66 2 2.32 2 3 C1.01 3.33 0.02 3.66 -1 4 C-0.34 5.65 0.32 7.3 1 9 C-1.02045442 8.39816251 -3.02111039 7.72693904 -5 7 C-5.33 6.34 -5.66 5.68 -6 5 C-5.01 5 -4.02 5 -3 5 C-2.5359375 4.0409375 -2.5359375 4.0409375 -2.0625 3.0625 C-1 1 -1 1 0 0 Z " fill="#AE962E" transform="translate(79,73)"/>
<path d="M0 0 C0.99 0.33 1.98 0.66 3 1 C3 1.99 3 2.98 3 4 C4.98 4.99 6.96 5.98 9 7 C8.67 7.66 8.34 8.32 8 9 C4.71752159 8.12467243 2.49145848 7.49145848 0.0625 5.0625 C-0.288125 4.381875 -0.63875 3.70125 -1 3 C-0.67 2.01 -0.34 1.02 0 0 Z " fill="#DDB51A" transform="translate(78,76)"/>
<path d="M0 0 C0 0.66 0 1.32 0 2 C-2.81763407 4.81763407 -4.28566635 5.94608803 -8.3125 6.25 C-9.199375 6.1675 -10.08625 6.085 -11 6 C-9.73083275 3.46166551 -8.58375191 3.10599099 -6.0625 1.875 C-5.35222656 1.52179688 -4.64195313 1.16859375 -3.91015625 0.8046875 C-2 0 -2 0 0 0 Z " fill="#BB4675" transform="translate(124,99)"/>
<path d="M0 0 C0.66 0 1.32 0 2 0 C2.33 2.31 2.66 4.62 3 7 C1.02 7.99 1.02 7.99 -1 9 C-0.67 6.03 -0.34 3.06 0 0 Z " fill="#07C0F5" transform="translate(67,75)"/>
<path d="M0 0 C0.66 0.33 1.32 0.66 2 1 C2 2.98 2 4.96 2 7 C0.35 6.67 -1.3 6.34 -3 6 C-2 3 -2 3 0 0 Z " fill="#F9DB07" transform="translate(90,31)"/>
<path d="M0 0 C0.99 0 1.98 0 3 0 C3.33 0.99 3.66 1.98 4 3 C-1.75 6 -1.75 6 -4 6 C-4 5.01 -4 4.02 -4 3 C-3.01 3 -2.02 3 -1 3 C-0.67 2.01 -0.34 1.02 0 0 Z " fill="#0D6F96" transform="translate(102,139)"/>
<path d="M0 0 C0 0.33 0 0.66 0 1 C-0.969375 1.12375 -1.93875 1.2475 -2.9375 1.375 C-3.948125 1.58125 -4.95875 1.7875 -6 2 C-6.33 2.66 -6.66 3.32 -7 4 C-8.32 3.67 -9.64 3.34 -11 3 C-7.16077997 -1.01373003 -5.47880919 -1.07194093 0 0 Z " fill="#C7A933" transform="translate(91,71)"/>
<path d="M0 0 C0.33 0 0.66 0 1 0 C1 2.64 1 5.28 1 8 C-0.32 8 -1.64 8 -3 8 C-3 6.35 -3 4.7 -3 3 C-2.01 3 -1.02 3 0 3 C0 2.01 0 1.02 0 0 Z " fill="#E21D53" transform="translate(24,22)"/>
<path d="M0 0 C1.65 0 3.3 0 5 0 C5 1.32 5 2.64 5 4 C3.02 4.33 1.04 4.66 -1 5 C-0.67 3.35 -0.34 1.7 0 0 Z " fill="#DB2264" transform="translate(74,177)"/>
<path d="M0 0 C0.66 0.33 1.32 0.66 2 1 C-1.6 4.6 -1.6 4.6 -4 6 C-7.25 5.6875 -7.25 5.6875 -10 5 C-8.66666667 4.33333333 -7.33333333 3.66666667 -6 3 C-4.453125 2.1646875 -4.453125 2.1646875 -2.875 1.3125 C-1.451875 0.6628125 -1.451875 0.6628125 0 0 Z " fill="#288D94" transform="translate(76,123)"/>
<path d="M0 0 C0.99 0.99 1.98 1.98 3 3 C2.67 3.99 2.34 4.98 2 6 C-0.0625 6.6875 -0.0625 6.6875 -2 7 C-2.33 5.35 -2.66 3.7 -3 2 C-2.01 2 -1.02 2 0 2 C0 1.34 0 0.68 0 0 Z " fill="#14B9ED" transform="translate(75,89)"/>
<path d="M0 0 C3.63 0.33 7.26 0.66 11 1 C11 1.33 11 1.66 11 2 C7.37 2.66 3.74 3.32 0 4 C0 2.68 0 1.36 0 0 Z " fill="#0A5F84" transform="translate(105,184)"/>
<path d="M0 0 C1.5 1.375 1.5 1.375 3 3 C3 3.66 3 4.32 3 5 C3.66 5 4.32 5 5 5 C5 5.66 5 6.32 5 7 C-0.75 5.125 -0.75 5.125 -3 4 C-3 3.34 -3 2.68 -3 2 C-2.01 1.34 -1.02 0.68 0 0 Z " fill="#BD5267" transform="translate(25,95)"/>
<path d="M0 0 C0 0.66 0 1.32 0 2 C-2.31 2.33 -4.62 2.66 -7 3 C-6.67 2.01 -6.34 1.02 -6 0 C-3.50907189 -1.24546405 -2.58919267 -0.7767578 0 0 Z " fill="#D4667E" transform="translate(38,77)"/>
<path d="M0 0 C-4.10457614 2.98514628 -6.97745369 3.2954439 -12 3 C-10.66666667 2.33333333 -9.33333333 1.66666667 -8 1 C-7.34 0.608125 -6.68 0.21625 -6 -0.1875 C-3.57136965 -1.17413108 -2.42552909 -0.86626039 0 0 Z " fill="#A22251" transform="translate(79,182)"/>
<path d="M0 0 C2.64 0 5.28 0 8 0 C8 0.99 8 1.98 8 3 C5.69 3 3.38 3 1 3 C0.67 2.01 0.34 1.02 0 0 Z " fill="#0C6D96" transform="translate(94,178)"/>
<path d="M0 0 C0 1.65 0 3.3 0 5 C-0.556875 4.649375 -1.11375 4.29875 -1.6875 3.9375 C-4.53886783 2.78154007 -6.08517222 3.19032562 -9 4 C-8 2 -8 2 -5.625 0.875 C-3 0 -3 0 0 0 Z " fill="#2C90A9" transform="translate(107,109)"/>
<path d="M0 0 C1.65 1.32 3.3 2.64 5 4 C-0.75 7 -0.75 7 -3 7 C-3 6.34 -3 5.68 -3 5 C-2.34 4.67 -1.68 4.34 -1 4 C-0.34786708 1.97536745 -0.34786708 1.97536745 0 0 Z " fill="#B85163" transform="translate(49,80)"/>
<path d="M0 0 C0.33 0 0.66 0 1 0 C1 1.65 1 3.3 1 5 C1.66 5 2.32 5 3 5 C3.66 6.98 4.32 8.96 5 11 C1.125 9.125 1.125 9.125 0 8 C-0.14115161 5.32941149 -0.04247107 2.67567762 0 0 Z " fill="#861337" transform="translate(56,57)"/>
<path d="M0 0 C1.32 0 2.64 0 4 0 C4 1.65 4 3.3 4 5 C2.68 5 1.36 5 0 5 C0 3.35 0 1.7 0 0 Z " fill="#F59B96" transform="translate(96,17)"/>
<path d="M0 0 C2.31 0.66 4.62 1.32 7 2 C6.67 3.65 6.34 5.3 6 7 C3.95880212 5.38405168 1.95927063 3.7143618 0 2 C0 1.34 0 0.68 0 0 Z " fill="#9E274E" transform="translate(62,164)"/>
<path d="M0 0 C0 0.99 0 1.98 0 3 C-2.64738916 4.4606285 -3.89448334 5 -7 5 C-7.33 4.01 -7.66 3.02 -8 2 C-5.36 1.34 -2.72 0.68 0 0 Z " fill="#E92168" transform="translate(85,162)"/>
<path d="M0 0 C-2.85306797 2.32472205 -5.54074837 3.7508258 -9 5 C-9 4.01 -9 3.02 -9 2 C-5.86501708 0.14223235 -3.62528568 -0.20140476 0 0 Z " fill="#97234F" transform="translate(114,161)"/>
<path d="M0 0 C2.31 0 4.62 0 7 0 C6.34 1.32 5.68 2.64 5 4 C3.68 4 2.36 4 1 4 C0.67 2.68 0.34 1.36 0 0 Z " fill="#0C77A9" transform="translate(77,151)"/>
<path d="M0 0 C0.66 0 1.32 0 2 0 C1.835 0.763125 1.67 1.52625 1.5 2.3125 C0.90854604 5.03596236 0.90854604 5.03596236 1 8 C0.34 8.66 -0.32 9.32 -1 10 C-1.02689216 8.52093108 -1.04634621 7.04172517 -1.0625 5.5625 C-1.07410156 4.73878906 -1.08570312 3.91507812 -1.09765625 3.06640625 C-1 1 -1 1 0 0 Z " fill="#F1317E" transform="translate(115,105)"/>
<path d="M0 0 C0.99 0 1.98 0 3 0 C3 2.97 3 5.94 3 9 C2.67 9 2.34 9 2 9 C1.67 7.02 1.34 5.04 1 3 C-0.32 3.33 -1.64 3.66 -3 4 C-2.34 3.67 -1.68 3.34 -1 3 C-0.67 2.01 -0.34 1.02 0 0 Z " fill="#E14887" transform="translate(125,98)"/>
<path d="M0 0 C0.99 0 1.98 0 3 0 C3 1.65 3 3.3 3 5 C1.68 5.33 0.36 5.66 -1 6 C-0.67 4.02 -0.34 2.04 0 0 Z " fill="#F6418E" transform="translate(74,60)"/>
<path d="M0 0 C3.91211733 1.15585285 6.8745041 2.35534962 10 5 C6.28111761 4.49287967 3.26545761 3.88391785 0 2 C0 1.34 0 0.68 0 0 Z " fill="#B49B3A" transform="translate(34,111)"/>
<path d="M0 0 C2.86724686 0.57344937 3.8614515 0.8614515 6 3 C4.02 3.66 2.04 4.32 0 5 C0 3.35 0 1.7 0 0 Z " fill="#A78D32" transform="translate(28,108)"/>
<path d="M0 0 C3.91211733 1.15585285 6.8745041 2.35534962 10 5 C6.13304322 5 3.4911548 3.58090029 0 2 C0 1.34 0 0.68 0 0 Z " fill="#AF8020" transform="translate(98,75)"/>
<path d="M0 0 C5.75 -0.125 5.75 -0.125 8 1 C7.67 1.99 7.34 2.98 7 4 C6.01 4 5.02 4 4 4 C4 3.01 4 2.02 4 1 C2.68 0.67 1.36 0.34 0 0 Z " fill="#125571" transform="translate(112,181)"/>
<path d="M0 0 C0.33 0 0.66 0 1 0 C1 1.98 1 3.96 1 6 C1.99 6.33 2.98 6.66 4 7 C0.25 8.125 0.25 8.125 -2 7 C-2 6.34 -2 5.68 -2 5 C-1.34 5 -0.68 5 0 5 C0 3.35 0 1.7 0 0 Z " fill="#B4663E" transform="translate(67,114)"/>
</svg>
